%TF.GenerationSoftware,KiCad,Pcbnew,8.0.1*%
%TF.CreationDate,2024-03-28T11:07:15-03:00*%
%TF.ProjectId,agora vai,61676f72-6120-4766-9169-2e6b69636164,rev?*%
%TF.SameCoordinates,Original*%
%TF.FileFunction,Legend,Top*%
%TF.FilePolarity,Positive*%
%FSLAX46Y46*%
G04 Gerber Fmt 4.6, Leading zero omitted, Abs format (unit mm)*
G04 Created by KiCad (PCBNEW 8.0.1) date 2024-03-28 11:07:15*
%MOMM*%
%LPD*%
G01*
G04 APERTURE LIST*
%ADD10C,0.150000*%
%ADD11C,0.120000*%
G04 APERTURE END LIST*
D10*
X129531905Y-122414819D02*
X129531905Y-121414819D01*
X129531905Y-121414819D02*
X129770000Y-121414819D01*
X129770000Y-121414819D02*
X129912857Y-121462438D01*
X129912857Y-121462438D02*
X130008095Y-121557676D01*
X130008095Y-121557676D02*
X130055714Y-121652914D01*
X130055714Y-121652914D02*
X130103333Y-121843390D01*
X130103333Y-121843390D02*
X130103333Y-121986247D01*
X130103333Y-121986247D02*
X130055714Y-122176723D01*
X130055714Y-122176723D02*
X130008095Y-122271961D01*
X130008095Y-122271961D02*
X129912857Y-122367200D01*
X129912857Y-122367200D02*
X129770000Y-122414819D01*
X129770000Y-122414819D02*
X129531905Y-122414819D01*
X131055714Y-122414819D02*
X130484286Y-122414819D01*
X130770000Y-122414819D02*
X130770000Y-121414819D01*
X130770000Y-121414819D02*
X130674762Y-121557676D01*
X130674762Y-121557676D02*
X130579524Y-121652914D01*
X130579524Y-121652914D02*
X130484286Y-121700533D01*
X131904761Y-97820057D02*
X131809523Y-97772438D01*
X131809523Y-97772438D02*
X131714285Y-97677200D01*
X131714285Y-97677200D02*
X131571428Y-97534342D01*
X131571428Y-97534342D02*
X131476190Y-97486723D01*
X131476190Y-97486723D02*
X131380952Y-97486723D01*
X131428571Y-97724819D02*
X131333333Y-97677200D01*
X131333333Y-97677200D02*
X131238095Y-97581961D01*
X131238095Y-97581961D02*
X131190476Y-97391485D01*
X131190476Y-97391485D02*
X131190476Y-97058152D01*
X131190476Y-97058152D02*
X131238095Y-96867676D01*
X131238095Y-96867676D02*
X131333333Y-96772438D01*
X131333333Y-96772438D02*
X131428571Y-96724819D01*
X131428571Y-96724819D02*
X131619047Y-96724819D01*
X131619047Y-96724819D02*
X131714285Y-96772438D01*
X131714285Y-96772438D02*
X131809523Y-96867676D01*
X131809523Y-96867676D02*
X131857142Y-97058152D01*
X131857142Y-97058152D02*
X131857142Y-97391485D01*
X131857142Y-97391485D02*
X131809523Y-97581961D01*
X131809523Y-97581961D02*
X131714285Y-97677200D01*
X131714285Y-97677200D02*
X131619047Y-97724819D01*
X131619047Y-97724819D02*
X131428571Y-97724819D01*
X132809523Y-97724819D02*
X132238095Y-97724819D01*
X132523809Y-97724819D02*
X132523809Y-96724819D01*
X132523809Y-96724819D02*
X132428571Y-96867676D01*
X132428571Y-96867676D02*
X132333333Y-96962914D01*
X132333333Y-96962914D02*
X132238095Y-97010533D01*
X131308333Y-96824819D02*
X130975000Y-96348628D01*
X130736905Y-96824819D02*
X130736905Y-95824819D01*
X130736905Y-95824819D02*
X131117857Y-95824819D01*
X131117857Y-95824819D02*
X131213095Y-95872438D01*
X131213095Y-95872438D02*
X131260714Y-95920057D01*
X131260714Y-95920057D02*
X131308333Y-96015295D01*
X131308333Y-96015295D02*
X131308333Y-96158152D01*
X131308333Y-96158152D02*
X131260714Y-96253390D01*
X131260714Y-96253390D02*
X131213095Y-96301009D01*
X131213095Y-96301009D02*
X131117857Y-96348628D01*
X131117857Y-96348628D02*
X130736905Y-96348628D01*
X132260714Y-96824819D02*
X131689286Y-96824819D01*
X131975000Y-96824819D02*
X131975000Y-95824819D01*
X131975000Y-95824819D02*
X131879762Y-95967676D01*
X131879762Y-95967676D02*
X131784524Y-96062914D01*
X131784524Y-96062914D02*
X131689286Y-96110533D01*
X143308333Y-126824819D02*
X142975000Y-126348628D01*
X142736905Y-126824819D02*
X142736905Y-125824819D01*
X142736905Y-125824819D02*
X143117857Y-125824819D01*
X143117857Y-125824819D02*
X143213095Y-125872438D01*
X143213095Y-125872438D02*
X143260714Y-125920057D01*
X143260714Y-125920057D02*
X143308333Y-126015295D01*
X143308333Y-126015295D02*
X143308333Y-126158152D01*
X143308333Y-126158152D02*
X143260714Y-126253390D01*
X143260714Y-126253390D02*
X143213095Y-126301009D01*
X143213095Y-126301009D02*
X143117857Y-126348628D01*
X143117857Y-126348628D02*
X142736905Y-126348628D01*
X143689286Y-125920057D02*
X143736905Y-125872438D01*
X143736905Y-125872438D02*
X143832143Y-125824819D01*
X143832143Y-125824819D02*
X144070238Y-125824819D01*
X144070238Y-125824819D02*
X144165476Y-125872438D01*
X144165476Y-125872438D02*
X144213095Y-125920057D01*
X144213095Y-125920057D02*
X144260714Y-126015295D01*
X144260714Y-126015295D02*
X144260714Y-126110533D01*
X144260714Y-126110533D02*
X144213095Y-126253390D01*
X144213095Y-126253390D02*
X143641667Y-126824819D01*
X143641667Y-126824819D02*
X144260714Y-126824819D01*
X140666666Y-117854819D02*
X140666666Y-118569104D01*
X140666666Y-118569104D02*
X140619047Y-118711961D01*
X140619047Y-118711961D02*
X140523809Y-118807200D01*
X140523809Y-118807200D02*
X140380952Y-118854819D01*
X140380952Y-118854819D02*
X140285714Y-118854819D01*
X141095238Y-117950057D02*
X141142857Y-117902438D01*
X141142857Y-117902438D02*
X141238095Y-117854819D01*
X141238095Y-117854819D02*
X141476190Y-117854819D01*
X141476190Y-117854819D02*
X141571428Y-117902438D01*
X141571428Y-117902438D02*
X141619047Y-117950057D01*
X141619047Y-117950057D02*
X141666666Y-118045295D01*
X141666666Y-118045295D02*
X141666666Y-118140533D01*
X141666666Y-118140533D02*
X141619047Y-118283390D01*
X141619047Y-118283390D02*
X141047619Y-118854819D01*
X141047619Y-118854819D02*
X141666666Y-118854819D01*
X109666666Y-99454819D02*
X109333333Y-98978628D01*
X109095238Y-99454819D02*
X109095238Y-98454819D01*
X109095238Y-98454819D02*
X109476190Y-98454819D01*
X109476190Y-98454819D02*
X109571428Y-98502438D01*
X109571428Y-98502438D02*
X109619047Y-98550057D01*
X109619047Y-98550057D02*
X109666666Y-98645295D01*
X109666666Y-98645295D02*
X109666666Y-98788152D01*
X109666666Y-98788152D02*
X109619047Y-98883390D01*
X109619047Y-98883390D02*
X109571428Y-98931009D01*
X109571428Y-98931009D02*
X109476190Y-98978628D01*
X109476190Y-98978628D02*
X109095238Y-98978628D01*
X110095238Y-98931009D02*
X110428571Y-98931009D01*
X110571428Y-99454819D02*
X110095238Y-99454819D01*
X110095238Y-99454819D02*
X110095238Y-98454819D01*
X110095238Y-98454819D02*
X110571428Y-98454819D01*
X111333333Y-98931009D02*
X111000000Y-98931009D01*
X111000000Y-99454819D02*
X111000000Y-98454819D01*
X111000000Y-98454819D02*
X111476190Y-98454819D01*
X112000000Y-98454819D02*
X112000000Y-98692914D01*
X111761905Y-98597676D02*
X112000000Y-98692914D01*
X112000000Y-98692914D02*
X112238095Y-98597676D01*
X111857143Y-98883390D02*
X112000000Y-98692914D01*
X112000000Y-98692914D02*
X112142857Y-98883390D01*
X112761905Y-98454819D02*
X112761905Y-98692914D01*
X112523810Y-98597676D02*
X112761905Y-98692914D01*
X112761905Y-98692914D02*
X113000000Y-98597676D01*
X112619048Y-98883390D02*
X112761905Y-98692914D01*
X112761905Y-98692914D02*
X112904762Y-98883390D01*
X96943998Y-120980868D02*
X96863185Y-121007805D01*
X96863185Y-121007805D02*
X96782373Y-121088618D01*
X96782373Y-121088618D02*
X96728498Y-121196367D01*
X96728498Y-121196367D02*
X96728498Y-121304117D01*
X96728498Y-121304117D02*
X96755436Y-121384929D01*
X96755436Y-121384929D02*
X96836248Y-121519616D01*
X96836248Y-121519616D02*
X96917060Y-121600428D01*
X96917060Y-121600428D02*
X97051747Y-121681241D01*
X97051747Y-121681241D02*
X97132560Y-121708178D01*
X97132560Y-121708178D02*
X97240309Y-121708178D01*
X97240309Y-121708178D02*
X97348059Y-121654303D01*
X97348059Y-121654303D02*
X97401934Y-121600428D01*
X97401934Y-121600428D02*
X97455808Y-121492679D01*
X97455808Y-121492679D02*
X97455808Y-121438804D01*
X97455808Y-121438804D02*
X97267247Y-121250242D01*
X97267247Y-121250242D02*
X97159497Y-121357992D01*
X97752120Y-121250242D02*
X97186434Y-120684557D01*
X97186434Y-120684557D02*
X97401934Y-120469057D01*
X97401934Y-120469057D02*
X97482746Y-120442120D01*
X97482746Y-120442120D02*
X97536621Y-120442120D01*
X97536621Y-120442120D02*
X97617433Y-120469057D01*
X97617433Y-120469057D02*
X97698245Y-120549870D01*
X97698245Y-120549870D02*
X97725182Y-120630682D01*
X97725182Y-120630682D02*
X97725182Y-120684557D01*
X97725182Y-120684557D02*
X97698245Y-120765369D01*
X97698245Y-120765369D02*
X97482746Y-120980868D01*
X98614117Y-120388245D02*
X98290868Y-120711494D01*
X98452492Y-120549870D02*
X97886807Y-119984184D01*
X97886807Y-119984184D02*
X97913744Y-120118871D01*
X97913744Y-120118871D02*
X97913744Y-120226621D01*
X97913744Y-120226621D02*
X97886807Y-120307433D01*
X98721866Y-119526248D02*
X99098990Y-119903372D01*
X98371680Y-119445436D02*
X98641054Y-119984184D01*
X98641054Y-119984184D02*
X98991240Y-119633998D01*
X97613372Y-97821494D02*
X97532560Y-97848431D01*
X97532560Y-97848431D02*
X97451748Y-97929243D01*
X97451748Y-97929243D02*
X97397873Y-98036993D01*
X97397873Y-98036993D02*
X97397873Y-98144742D01*
X97397873Y-98144742D02*
X97424810Y-98225555D01*
X97424810Y-98225555D02*
X97505623Y-98360242D01*
X97505623Y-98360242D02*
X97586435Y-98441054D01*
X97586435Y-98441054D02*
X97721122Y-98521866D01*
X97721122Y-98521866D02*
X97801934Y-98548803D01*
X97801934Y-98548803D02*
X97909684Y-98548803D01*
X97909684Y-98548803D02*
X98017433Y-98494929D01*
X98017433Y-98494929D02*
X98071308Y-98441054D01*
X98071308Y-98441054D02*
X98125183Y-98333304D01*
X98125183Y-98333304D02*
X98125183Y-98279429D01*
X98125183Y-98279429D02*
X97936621Y-98090868D01*
X97936621Y-98090868D02*
X97828871Y-98198617D01*
X98421494Y-98090868D02*
X97855809Y-97525182D01*
X97855809Y-97525182D02*
X98071308Y-97309683D01*
X98071308Y-97309683D02*
X98152120Y-97282746D01*
X98152120Y-97282746D02*
X98205995Y-97282746D01*
X98205995Y-97282746D02*
X98286807Y-97309683D01*
X98286807Y-97309683D02*
X98367619Y-97390495D01*
X98367619Y-97390495D02*
X98394557Y-97471307D01*
X98394557Y-97471307D02*
X98394557Y-97525182D01*
X98394557Y-97525182D02*
X98367619Y-97605994D01*
X98367619Y-97605994D02*
X98152120Y-97821494D01*
X98367619Y-97013372D02*
X98744743Y-96636248D01*
X98744743Y-96636248D02*
X99067992Y-97444370D01*
X123097998Y-95590868D02*
X123017185Y-95617805D01*
X123017185Y-95617805D02*
X122936373Y-95698618D01*
X122936373Y-95698618D02*
X122882498Y-95806367D01*
X122882498Y-95806367D02*
X122882498Y-95914117D01*
X122882498Y-95914117D02*
X122909436Y-95994929D01*
X122909436Y-95994929D02*
X122990248Y-96129616D01*
X122990248Y-96129616D02*
X123071060Y-96210428D01*
X123071060Y-96210428D02*
X123205747Y-96291241D01*
X123205747Y-96291241D02*
X123286560Y-96318178D01*
X123286560Y-96318178D02*
X123394309Y-96318178D01*
X123394309Y-96318178D02*
X123502059Y-96264303D01*
X123502059Y-96264303D02*
X123555934Y-96210428D01*
X123555934Y-96210428D02*
X123609808Y-96102679D01*
X123609808Y-96102679D02*
X123609808Y-96048804D01*
X123609808Y-96048804D02*
X123421247Y-95860242D01*
X123421247Y-95860242D02*
X123313497Y-95967992D01*
X123906120Y-95860242D02*
X123340434Y-95294557D01*
X123340434Y-95294557D02*
X123555934Y-95079057D01*
X123555934Y-95079057D02*
X123636746Y-95052120D01*
X123636746Y-95052120D02*
X123690621Y-95052120D01*
X123690621Y-95052120D02*
X123771433Y-95079057D01*
X123771433Y-95079057D02*
X123852245Y-95159870D01*
X123852245Y-95159870D02*
X123879182Y-95240682D01*
X123879182Y-95240682D02*
X123879182Y-95294557D01*
X123879182Y-95294557D02*
X123852245Y-95375369D01*
X123852245Y-95375369D02*
X123636746Y-95590868D01*
X123933057Y-94809683D02*
X123933057Y-94755809D01*
X123933057Y-94755809D02*
X123959995Y-94674996D01*
X123959995Y-94674996D02*
X124094682Y-94540309D01*
X124094682Y-94540309D02*
X124175494Y-94513372D01*
X124175494Y-94513372D02*
X124229369Y-94513372D01*
X124229369Y-94513372D02*
X124310181Y-94540309D01*
X124310181Y-94540309D02*
X124364056Y-94594184D01*
X124364056Y-94594184D02*
X124417930Y-94701934D01*
X124417930Y-94701934D02*
X124417930Y-95348431D01*
X124417930Y-95348431D02*
X124768117Y-94998245D01*
X124390993Y-94243998D02*
X124768117Y-93866874D01*
X124768117Y-93866874D02*
X125091366Y-94674996D01*
X122890123Y-85490868D02*
X123240309Y-85140682D01*
X123240309Y-85140682D02*
X123267247Y-85544743D01*
X123267247Y-85544743D02*
X123348059Y-85463931D01*
X123348059Y-85463931D02*
X123428871Y-85436993D01*
X123428871Y-85436993D02*
X123482746Y-85436993D01*
X123482746Y-85436993D02*
X123563558Y-85463931D01*
X123563558Y-85463931D02*
X123698245Y-85598618D01*
X123698245Y-85598618D02*
X123725182Y-85679430D01*
X123725182Y-85679430D02*
X123725182Y-85733305D01*
X123725182Y-85733305D02*
X123698245Y-85814117D01*
X123698245Y-85814117D02*
X123536621Y-85975741D01*
X123536621Y-85975741D02*
X123455808Y-86002679D01*
X123455808Y-86002679D02*
X123401934Y-86002679D01*
X123401934Y-84979057D02*
X124156181Y-85356181D01*
X124156181Y-85356181D02*
X123779057Y-84601934D01*
X123913744Y-84467247D02*
X124263930Y-84117061D01*
X124263930Y-84117061D02*
X124290868Y-84521122D01*
X124290868Y-84521122D02*
X124371680Y-84440309D01*
X124371680Y-84440309D02*
X124452492Y-84413372D01*
X124452492Y-84413372D02*
X124506367Y-84413372D01*
X124506367Y-84413372D02*
X124587179Y-84440309D01*
X124587179Y-84440309D02*
X124721866Y-84574996D01*
X124721866Y-84574996D02*
X124748804Y-84655809D01*
X124748804Y-84655809D02*
X124748804Y-84709683D01*
X124748804Y-84709683D02*
X124721866Y-84790496D01*
X124721866Y-84790496D02*
X124560242Y-84952120D01*
X124560242Y-84952120D02*
X124479430Y-84979057D01*
X124479430Y-84979057D02*
X124425555Y-84979057D01*
X96989998Y-115900868D02*
X96909185Y-115927805D01*
X96909185Y-115927805D02*
X96828373Y-116008618D01*
X96828373Y-116008618D02*
X96774498Y-116116367D01*
X96774498Y-116116367D02*
X96774498Y-116224117D01*
X96774498Y-116224117D02*
X96801436Y-116304929D01*
X96801436Y-116304929D02*
X96882248Y-116439616D01*
X96882248Y-116439616D02*
X96963060Y-116520428D01*
X96963060Y-116520428D02*
X97097747Y-116601241D01*
X97097747Y-116601241D02*
X97178560Y-116628178D01*
X97178560Y-116628178D02*
X97286309Y-116628178D01*
X97286309Y-116628178D02*
X97394059Y-116574303D01*
X97394059Y-116574303D02*
X97447934Y-116520428D01*
X97447934Y-116520428D02*
X97501808Y-116412679D01*
X97501808Y-116412679D02*
X97501808Y-116358804D01*
X97501808Y-116358804D02*
X97313247Y-116170242D01*
X97313247Y-116170242D02*
X97205497Y-116277992D01*
X97798120Y-116170242D02*
X97232434Y-115604557D01*
X97232434Y-115604557D02*
X97447934Y-115389057D01*
X97447934Y-115389057D02*
X97528746Y-115362120D01*
X97528746Y-115362120D02*
X97582621Y-115362120D01*
X97582621Y-115362120D02*
X97663433Y-115389057D01*
X97663433Y-115389057D02*
X97744245Y-115469870D01*
X97744245Y-115469870D02*
X97771182Y-115550682D01*
X97771182Y-115550682D02*
X97771182Y-115604557D01*
X97771182Y-115604557D02*
X97744245Y-115685369D01*
X97744245Y-115685369D02*
X97528746Y-115900868D01*
X98660117Y-115308245D02*
X98336868Y-115631494D01*
X98498492Y-115469870D02*
X97932807Y-114904184D01*
X97932807Y-114904184D02*
X97959744Y-115038871D01*
X97959744Y-115038871D02*
X97959744Y-115146621D01*
X97959744Y-115146621D02*
X97932807Y-115227433D01*
X98282993Y-114553998D02*
X98633179Y-114203812D01*
X98633179Y-114203812D02*
X98660117Y-114607873D01*
X98660117Y-114607873D02*
X98740929Y-114527060D01*
X98740929Y-114527060D02*
X98821741Y-114500123D01*
X98821741Y-114500123D02*
X98875616Y-114500123D01*
X98875616Y-114500123D02*
X98956428Y-114527060D01*
X98956428Y-114527060D02*
X99091115Y-114661747D01*
X99091115Y-114661747D02*
X99118053Y-114742560D01*
X99118053Y-114742560D02*
X99118053Y-114796434D01*
X99118053Y-114796434D02*
X99091115Y-114877247D01*
X99091115Y-114877247D02*
X98929491Y-115038871D01*
X98929491Y-115038871D02*
X98848679Y-115065808D01*
X98848679Y-115065808D02*
X98794804Y-115065808D01*
X123838651Y-100943710D02*
X123380716Y-100862898D01*
X123515403Y-101266959D02*
X122949717Y-100701274D01*
X122949717Y-100701274D02*
X123165216Y-100485775D01*
X123165216Y-100485775D02*
X123246029Y-100458837D01*
X123246029Y-100458837D02*
X123299903Y-100458837D01*
X123299903Y-100458837D02*
X123380716Y-100485775D01*
X123380716Y-100485775D02*
X123461528Y-100566587D01*
X123461528Y-100566587D02*
X123488465Y-100647399D01*
X123488465Y-100647399D02*
X123488465Y-100701274D01*
X123488465Y-100701274D02*
X123461528Y-100782086D01*
X123461528Y-100782086D02*
X123246029Y-100997585D01*
X123515403Y-100135588D02*
X123973338Y-100593524D01*
X123973338Y-100593524D02*
X124054151Y-100620462D01*
X124054151Y-100620462D02*
X124108025Y-100620462D01*
X124108025Y-100620462D02*
X124188838Y-100593524D01*
X124188838Y-100593524D02*
X124296587Y-100485775D01*
X124296587Y-100485775D02*
X124323525Y-100404962D01*
X124323525Y-100404962D02*
X124323525Y-100351088D01*
X124323525Y-100351088D02*
X124296587Y-100270275D01*
X124296587Y-100270275D02*
X123838651Y-99812340D01*
X124673711Y-100108651D02*
X124108025Y-99542966D01*
X124108025Y-99542966D02*
X124996959Y-99785402D01*
X124996959Y-99785402D02*
X124431274Y-99219717D01*
X123097998Y-110820868D02*
X123017185Y-110847805D01*
X123017185Y-110847805D02*
X122936373Y-110928618D01*
X122936373Y-110928618D02*
X122882498Y-111036367D01*
X122882498Y-111036367D02*
X122882498Y-111144117D01*
X122882498Y-111144117D02*
X122909436Y-111224929D01*
X122909436Y-111224929D02*
X122990248Y-111359616D01*
X122990248Y-111359616D02*
X123071060Y-111440428D01*
X123071060Y-111440428D02*
X123205747Y-111521241D01*
X123205747Y-111521241D02*
X123286560Y-111548178D01*
X123286560Y-111548178D02*
X123394309Y-111548178D01*
X123394309Y-111548178D02*
X123502059Y-111494303D01*
X123502059Y-111494303D02*
X123555934Y-111440428D01*
X123555934Y-111440428D02*
X123609808Y-111332679D01*
X123609808Y-111332679D02*
X123609808Y-111278804D01*
X123609808Y-111278804D02*
X123421247Y-111090242D01*
X123421247Y-111090242D02*
X123313497Y-111197992D01*
X123906120Y-111090242D02*
X123340434Y-110524557D01*
X123340434Y-110524557D02*
X123555934Y-110309057D01*
X123555934Y-110309057D02*
X123636746Y-110282120D01*
X123636746Y-110282120D02*
X123690621Y-110282120D01*
X123690621Y-110282120D02*
X123771433Y-110309057D01*
X123771433Y-110309057D02*
X123852245Y-110389870D01*
X123852245Y-110389870D02*
X123879182Y-110470682D01*
X123879182Y-110470682D02*
X123879182Y-110524557D01*
X123879182Y-110524557D02*
X123852245Y-110605369D01*
X123852245Y-110605369D02*
X123636746Y-110820868D01*
X123933057Y-110039683D02*
X123933057Y-109985809D01*
X123933057Y-109985809D02*
X123959995Y-109904996D01*
X123959995Y-109904996D02*
X124094682Y-109770309D01*
X124094682Y-109770309D02*
X124175494Y-109743372D01*
X124175494Y-109743372D02*
X124229369Y-109743372D01*
X124229369Y-109743372D02*
X124310181Y-109770309D01*
X124310181Y-109770309D02*
X124364056Y-109824184D01*
X124364056Y-109824184D02*
X124417930Y-109931934D01*
X124417930Y-109931934D02*
X124417930Y-110578431D01*
X124417930Y-110578431D02*
X124768117Y-110228245D01*
X124552618Y-109312373D02*
X124606492Y-109258499D01*
X124606492Y-109258499D02*
X124687305Y-109231561D01*
X124687305Y-109231561D02*
X124741179Y-109231561D01*
X124741179Y-109231561D02*
X124821992Y-109258499D01*
X124821992Y-109258499D02*
X124956679Y-109339311D01*
X124956679Y-109339311D02*
X125091366Y-109473998D01*
X125091366Y-109473998D02*
X125172178Y-109608685D01*
X125172178Y-109608685D02*
X125199115Y-109689497D01*
X125199115Y-109689497D02*
X125199115Y-109743372D01*
X125199115Y-109743372D02*
X125172178Y-109824184D01*
X125172178Y-109824184D02*
X125118303Y-109878059D01*
X125118303Y-109878059D02*
X125037491Y-109904996D01*
X125037491Y-109904996D02*
X124983616Y-109904996D01*
X124983616Y-109904996D02*
X124902804Y-109878059D01*
X124902804Y-109878059D02*
X124768117Y-109797247D01*
X124768117Y-109797247D02*
X124633430Y-109662560D01*
X124633430Y-109662560D02*
X124552618Y-109527873D01*
X124552618Y-109527873D02*
X124525680Y-109447060D01*
X124525680Y-109447060D02*
X124525680Y-109393186D01*
X124525680Y-109393186D02*
X124552618Y-109312373D01*
X97513372Y-102931494D02*
X97432560Y-102958431D01*
X97432560Y-102958431D02*
X97351748Y-103039243D01*
X97351748Y-103039243D02*
X97297873Y-103146993D01*
X97297873Y-103146993D02*
X97297873Y-103254742D01*
X97297873Y-103254742D02*
X97324810Y-103335555D01*
X97324810Y-103335555D02*
X97405623Y-103470242D01*
X97405623Y-103470242D02*
X97486435Y-103551054D01*
X97486435Y-103551054D02*
X97621122Y-103631866D01*
X97621122Y-103631866D02*
X97701934Y-103658803D01*
X97701934Y-103658803D02*
X97809684Y-103658803D01*
X97809684Y-103658803D02*
X97917433Y-103604929D01*
X97917433Y-103604929D02*
X97971308Y-103551054D01*
X97971308Y-103551054D02*
X98025183Y-103443304D01*
X98025183Y-103443304D02*
X98025183Y-103389429D01*
X98025183Y-103389429D02*
X97836621Y-103200868D01*
X97836621Y-103200868D02*
X97728871Y-103308617D01*
X98321494Y-103200868D02*
X97755809Y-102635182D01*
X97755809Y-102635182D02*
X97971308Y-102419683D01*
X97971308Y-102419683D02*
X98052120Y-102392746D01*
X98052120Y-102392746D02*
X98105995Y-102392746D01*
X98105995Y-102392746D02*
X98186807Y-102419683D01*
X98186807Y-102419683D02*
X98267619Y-102500495D01*
X98267619Y-102500495D02*
X98294557Y-102581307D01*
X98294557Y-102581307D02*
X98294557Y-102635182D01*
X98294557Y-102635182D02*
X98267619Y-102715994D01*
X98267619Y-102715994D02*
X98052120Y-102931494D01*
X98914117Y-102608245D02*
X99021867Y-102500495D01*
X99021867Y-102500495D02*
X99048804Y-102419683D01*
X99048804Y-102419683D02*
X99048804Y-102365808D01*
X99048804Y-102365808D02*
X99021867Y-102231121D01*
X99021867Y-102231121D02*
X98941054Y-102096434D01*
X98941054Y-102096434D02*
X98725555Y-101880935D01*
X98725555Y-101880935D02*
X98644743Y-101853998D01*
X98644743Y-101853998D02*
X98590868Y-101853998D01*
X98590868Y-101853998D02*
X98510056Y-101880935D01*
X98510056Y-101880935D02*
X98402306Y-101988685D01*
X98402306Y-101988685D02*
X98375369Y-102069497D01*
X98375369Y-102069497D02*
X98375369Y-102123372D01*
X98375369Y-102123372D02*
X98402306Y-102204184D01*
X98402306Y-102204184D02*
X98536993Y-102338871D01*
X98536993Y-102338871D02*
X98617806Y-102365808D01*
X98617806Y-102365808D02*
X98671680Y-102365808D01*
X98671680Y-102365808D02*
X98752493Y-102338871D01*
X98752493Y-102338871D02*
X98860242Y-102231121D01*
X98860242Y-102231121D02*
X98887180Y-102150309D01*
X98887180Y-102150309D02*
X98887180Y-102096434D01*
X98887180Y-102096434D02*
X98860242Y-102015622D01*
X123155064Y-88534049D02*
X123424438Y-88264675D01*
X123262813Y-88749549D02*
X122885690Y-87995301D01*
X122885690Y-87995301D02*
X123639937Y-88372425D01*
X123828499Y-88183863D02*
X123262813Y-87618178D01*
X123262813Y-87618178D02*
X123397500Y-87483491D01*
X123397500Y-87483491D02*
X123505250Y-87429616D01*
X123505250Y-87429616D02*
X123612999Y-87429616D01*
X123612999Y-87429616D02*
X123693812Y-87456553D01*
X123693812Y-87456553D02*
X123828499Y-87537366D01*
X123828499Y-87537366D02*
X123909311Y-87618178D01*
X123909311Y-87618178D02*
X123990123Y-87752865D01*
X123990123Y-87752865D02*
X124017060Y-87833677D01*
X124017060Y-87833677D02*
X124017060Y-87941427D01*
X124017060Y-87941427D02*
X123963186Y-88049176D01*
X123963186Y-88049176D02*
X123828499Y-88183863D01*
X124663558Y-87241054D02*
X124663558Y-87294929D01*
X124663558Y-87294929D02*
X124609683Y-87402679D01*
X124609683Y-87402679D02*
X124555808Y-87456553D01*
X124555808Y-87456553D02*
X124448059Y-87510428D01*
X124448059Y-87510428D02*
X124340309Y-87510428D01*
X124340309Y-87510428D02*
X124259497Y-87483491D01*
X124259497Y-87483491D02*
X124124810Y-87402679D01*
X124124810Y-87402679D02*
X124043998Y-87321866D01*
X124043998Y-87321866D02*
X123963186Y-87187179D01*
X123963186Y-87187179D02*
X123936248Y-87106367D01*
X123936248Y-87106367D02*
X123936248Y-86998618D01*
X123936248Y-86998618D02*
X123990123Y-86890868D01*
X123990123Y-86890868D02*
X124043998Y-86836993D01*
X124043998Y-86836993D02*
X124151747Y-86783118D01*
X124151747Y-86783118D02*
X124205622Y-86783118D01*
X124879057Y-87241054D02*
X125310056Y-86810056D01*
X124744370Y-86136621D02*
X125498618Y-86513744D01*
X125498618Y-86513744D02*
X125121494Y-85759497D01*
X126198990Y-85813372D02*
X125741054Y-85732560D01*
X125875741Y-86136621D02*
X125310056Y-85570935D01*
X125310056Y-85570935D02*
X125525555Y-85355436D01*
X125525555Y-85355436D02*
X125606367Y-85328499D01*
X125606367Y-85328499D02*
X125660242Y-85328499D01*
X125660242Y-85328499D02*
X125741054Y-85355436D01*
X125741054Y-85355436D02*
X125821866Y-85436248D01*
X125821866Y-85436248D02*
X125848804Y-85517061D01*
X125848804Y-85517061D02*
X125848804Y-85570935D01*
X125848804Y-85570935D02*
X125821866Y-85651748D01*
X125821866Y-85651748D02*
X125606367Y-85867247D01*
X126145115Y-85274624D02*
X126333677Y-85086062D01*
X126710800Y-85301561D02*
X126441426Y-85570935D01*
X126441426Y-85570935D02*
X125875741Y-85005250D01*
X125875741Y-85005250D02*
X126145115Y-84735876D01*
X126845488Y-84574251D02*
X126656926Y-84762813D01*
X126953237Y-85059125D02*
X126387552Y-84493439D01*
X126387552Y-84493439D02*
X126656926Y-84224065D01*
X123097998Y-98120868D02*
X123017185Y-98147805D01*
X123017185Y-98147805D02*
X122936373Y-98228618D01*
X122936373Y-98228618D02*
X122882498Y-98336367D01*
X122882498Y-98336367D02*
X122882498Y-98444117D01*
X122882498Y-98444117D02*
X122909436Y-98524929D01*
X122909436Y-98524929D02*
X122990248Y-98659616D01*
X122990248Y-98659616D02*
X123071060Y-98740428D01*
X123071060Y-98740428D02*
X123205747Y-98821241D01*
X123205747Y-98821241D02*
X123286560Y-98848178D01*
X123286560Y-98848178D02*
X123394309Y-98848178D01*
X123394309Y-98848178D02*
X123502059Y-98794303D01*
X123502059Y-98794303D02*
X123555934Y-98740428D01*
X123555934Y-98740428D02*
X123609808Y-98632679D01*
X123609808Y-98632679D02*
X123609808Y-98578804D01*
X123609808Y-98578804D02*
X123421247Y-98390242D01*
X123421247Y-98390242D02*
X123313497Y-98497992D01*
X123906120Y-98390242D02*
X123340434Y-97824557D01*
X123340434Y-97824557D02*
X123555934Y-97609057D01*
X123555934Y-97609057D02*
X123636746Y-97582120D01*
X123636746Y-97582120D02*
X123690621Y-97582120D01*
X123690621Y-97582120D02*
X123771433Y-97609057D01*
X123771433Y-97609057D02*
X123852245Y-97689870D01*
X123852245Y-97689870D02*
X123879182Y-97770682D01*
X123879182Y-97770682D02*
X123879182Y-97824557D01*
X123879182Y-97824557D02*
X123852245Y-97905369D01*
X123852245Y-97905369D02*
X123636746Y-98120868D01*
X123933057Y-97339683D02*
X123933057Y-97285809D01*
X123933057Y-97285809D02*
X123959995Y-97204996D01*
X123959995Y-97204996D02*
X124094682Y-97070309D01*
X124094682Y-97070309D02*
X124175494Y-97043372D01*
X124175494Y-97043372D02*
X124229369Y-97043372D01*
X124229369Y-97043372D02*
X124310181Y-97070309D01*
X124310181Y-97070309D02*
X124364056Y-97124184D01*
X124364056Y-97124184D02*
X124417930Y-97231934D01*
X124417930Y-97231934D02*
X124417930Y-97878431D01*
X124417930Y-97878431D02*
X124768117Y-97528245D01*
X124687305Y-96477686D02*
X124579555Y-96585436D01*
X124579555Y-96585436D02*
X124552618Y-96666248D01*
X124552618Y-96666248D02*
X124552618Y-96720123D01*
X124552618Y-96720123D02*
X124579555Y-96854810D01*
X124579555Y-96854810D02*
X124660367Y-96989497D01*
X124660367Y-96989497D02*
X124875866Y-97204996D01*
X124875866Y-97204996D02*
X124956679Y-97231934D01*
X124956679Y-97231934D02*
X125010553Y-97231934D01*
X125010553Y-97231934D02*
X125091366Y-97204996D01*
X125091366Y-97204996D02*
X125199115Y-97097247D01*
X125199115Y-97097247D02*
X125226053Y-97016434D01*
X125226053Y-97016434D02*
X125226053Y-96962560D01*
X125226053Y-96962560D02*
X125199115Y-96881747D01*
X125199115Y-96881747D02*
X125064428Y-96747060D01*
X125064428Y-96747060D02*
X124983616Y-96720123D01*
X124983616Y-96720123D02*
X124929741Y-96720123D01*
X124929741Y-96720123D02*
X124848929Y-96747060D01*
X124848929Y-96747060D02*
X124741179Y-96854810D01*
X124741179Y-96854810D02*
X124714242Y-96935622D01*
X124714242Y-96935622D02*
X124714242Y-96989497D01*
X124714242Y-96989497D02*
X124741179Y-97070309D01*
X123097998Y-113360868D02*
X123017185Y-113387805D01*
X123017185Y-113387805D02*
X122936373Y-113468618D01*
X122936373Y-113468618D02*
X122882498Y-113576367D01*
X122882498Y-113576367D02*
X122882498Y-113684117D01*
X122882498Y-113684117D02*
X122909436Y-113764929D01*
X122909436Y-113764929D02*
X122990248Y-113899616D01*
X122990248Y-113899616D02*
X123071060Y-113980428D01*
X123071060Y-113980428D02*
X123205747Y-114061241D01*
X123205747Y-114061241D02*
X123286560Y-114088178D01*
X123286560Y-114088178D02*
X123394309Y-114088178D01*
X123394309Y-114088178D02*
X123502059Y-114034303D01*
X123502059Y-114034303D02*
X123555934Y-113980428D01*
X123555934Y-113980428D02*
X123609808Y-113872679D01*
X123609808Y-113872679D02*
X123609808Y-113818804D01*
X123609808Y-113818804D02*
X123421247Y-113630242D01*
X123421247Y-113630242D02*
X123313497Y-113737992D01*
X123906120Y-113630242D02*
X123340434Y-113064557D01*
X123340434Y-113064557D02*
X123555934Y-112849057D01*
X123555934Y-112849057D02*
X123636746Y-112822120D01*
X123636746Y-112822120D02*
X123690621Y-112822120D01*
X123690621Y-112822120D02*
X123771433Y-112849057D01*
X123771433Y-112849057D02*
X123852245Y-112929870D01*
X123852245Y-112929870D02*
X123879182Y-113010682D01*
X123879182Y-113010682D02*
X123879182Y-113064557D01*
X123879182Y-113064557D02*
X123852245Y-113145369D01*
X123852245Y-113145369D02*
X123636746Y-113360868D01*
X124768117Y-112768245D02*
X124444868Y-113091494D01*
X124606492Y-112929870D02*
X124040807Y-112364184D01*
X124040807Y-112364184D02*
X124067744Y-112498871D01*
X124067744Y-112498871D02*
X124067744Y-112606621D01*
X124067744Y-112606621D02*
X124040807Y-112687433D01*
X125037491Y-112498871D02*
X125145240Y-112391121D01*
X125145240Y-112391121D02*
X125172178Y-112310309D01*
X125172178Y-112310309D02*
X125172178Y-112256434D01*
X125172178Y-112256434D02*
X125145240Y-112121747D01*
X125145240Y-112121747D02*
X125064428Y-111987060D01*
X125064428Y-111987060D02*
X124848929Y-111771561D01*
X124848929Y-111771561D02*
X124768117Y-111744624D01*
X124768117Y-111744624D02*
X124714242Y-111744624D01*
X124714242Y-111744624D02*
X124633430Y-111771561D01*
X124633430Y-111771561D02*
X124525680Y-111879311D01*
X124525680Y-111879311D02*
X124498743Y-111960123D01*
X124498743Y-111960123D02*
X124498743Y-112013998D01*
X124498743Y-112013998D02*
X124525680Y-112094810D01*
X124525680Y-112094810D02*
X124660367Y-112229497D01*
X124660367Y-112229497D02*
X124741179Y-112256434D01*
X124741179Y-112256434D02*
X124795054Y-112256434D01*
X124795054Y-112256434D02*
X124875866Y-112229497D01*
X124875866Y-112229497D02*
X124983616Y-112121747D01*
X124983616Y-112121747D02*
X125010553Y-112040935D01*
X125010553Y-112040935D02*
X125010553Y-111987060D01*
X125010553Y-111987060D02*
X124983616Y-111906248D01*
X97513372Y-90231494D02*
X97432560Y-90258431D01*
X97432560Y-90258431D02*
X97351748Y-90339243D01*
X97351748Y-90339243D02*
X97297873Y-90446993D01*
X97297873Y-90446993D02*
X97297873Y-90554742D01*
X97297873Y-90554742D02*
X97324810Y-90635555D01*
X97324810Y-90635555D02*
X97405623Y-90770242D01*
X97405623Y-90770242D02*
X97486435Y-90851054D01*
X97486435Y-90851054D02*
X97621122Y-90931866D01*
X97621122Y-90931866D02*
X97701934Y-90958803D01*
X97701934Y-90958803D02*
X97809684Y-90958803D01*
X97809684Y-90958803D02*
X97917433Y-90904929D01*
X97917433Y-90904929D02*
X97971308Y-90851054D01*
X97971308Y-90851054D02*
X98025183Y-90743304D01*
X98025183Y-90743304D02*
X98025183Y-90689429D01*
X98025183Y-90689429D02*
X97836621Y-90500868D01*
X97836621Y-90500868D02*
X97728871Y-90608617D01*
X98321494Y-90500868D02*
X97755809Y-89935182D01*
X97755809Y-89935182D02*
X97971308Y-89719683D01*
X97971308Y-89719683D02*
X98052120Y-89692746D01*
X98052120Y-89692746D02*
X98105995Y-89692746D01*
X98105995Y-89692746D02*
X98186807Y-89719683D01*
X98186807Y-89719683D02*
X98267619Y-89800495D01*
X98267619Y-89800495D02*
X98294557Y-89881307D01*
X98294557Y-89881307D02*
X98294557Y-89935182D01*
X98294557Y-89935182D02*
X98267619Y-90015994D01*
X98267619Y-90015994D02*
X98052120Y-90231494D01*
X98590868Y-89100123D02*
X98321494Y-89369497D01*
X98321494Y-89369497D02*
X98563931Y-89665808D01*
X98563931Y-89665808D02*
X98563931Y-89611933D01*
X98563931Y-89611933D02*
X98590868Y-89531121D01*
X98590868Y-89531121D02*
X98725555Y-89396434D01*
X98725555Y-89396434D02*
X98806367Y-89369497D01*
X98806367Y-89369497D02*
X98860242Y-89369497D01*
X98860242Y-89369497D02*
X98941054Y-89396434D01*
X98941054Y-89396434D02*
X99075741Y-89531121D01*
X99075741Y-89531121D02*
X99102679Y-89611933D01*
X99102679Y-89611933D02*
X99102679Y-89665808D01*
X99102679Y-89665808D02*
X99075741Y-89746620D01*
X99075741Y-89746620D02*
X98941054Y-89881307D01*
X98941054Y-89881307D02*
X98860242Y-89908245D01*
X98860242Y-89908245D02*
X98806367Y-89908245D01*
X123151873Y-93741240D02*
X123421247Y-93471866D01*
X123259623Y-93956739D02*
X122882499Y-93202492D01*
X122882499Y-93202492D02*
X123636746Y-93579615D01*
X123582871Y-92555994D02*
X123502059Y-92582932D01*
X123502059Y-92582932D02*
X123421247Y-92663744D01*
X123421247Y-92663744D02*
X123367372Y-92771494D01*
X123367372Y-92771494D02*
X123367372Y-92879243D01*
X123367372Y-92879243D02*
X123394310Y-92960055D01*
X123394310Y-92960055D02*
X123475122Y-93094742D01*
X123475122Y-93094742D02*
X123555934Y-93175555D01*
X123555934Y-93175555D02*
X123690621Y-93256367D01*
X123690621Y-93256367D02*
X123771433Y-93283304D01*
X123771433Y-93283304D02*
X123879183Y-93283304D01*
X123879183Y-93283304D02*
X123986932Y-93229429D01*
X123986932Y-93229429D02*
X124040807Y-93175555D01*
X124040807Y-93175555D02*
X124094682Y-93067805D01*
X124094682Y-93067805D02*
X124094682Y-93013930D01*
X124094682Y-93013930D02*
X123906120Y-92825368D01*
X123906120Y-92825368D02*
X123798371Y-92933118D01*
X124390993Y-92825368D02*
X123825308Y-92259683D01*
X123825308Y-92259683D02*
X124714242Y-92502120D01*
X124714242Y-92502120D02*
X124148557Y-91936434D01*
X124983616Y-92232746D02*
X124417931Y-91667060D01*
X124417931Y-91667060D02*
X124552618Y-91532373D01*
X124552618Y-91532373D02*
X124660367Y-91478498D01*
X124660367Y-91478498D02*
X124768117Y-91478498D01*
X124768117Y-91478498D02*
X124848929Y-91505436D01*
X124848929Y-91505436D02*
X124983616Y-91586248D01*
X124983616Y-91586248D02*
X125064428Y-91667060D01*
X125064428Y-91667060D02*
X125145241Y-91801747D01*
X125145241Y-91801747D02*
X125172178Y-91882560D01*
X125172178Y-91882560D02*
X125172178Y-91990309D01*
X125172178Y-91990309D02*
X125118303Y-92098059D01*
X125118303Y-92098059D02*
X124983616Y-92232746D01*
X123086435Y-80098431D02*
X123005623Y-80125368D01*
X123005623Y-80125368D02*
X122924811Y-80206180D01*
X122924811Y-80206180D02*
X122870936Y-80313930D01*
X122870936Y-80313930D02*
X122870936Y-80421680D01*
X122870936Y-80421680D02*
X122897873Y-80502492D01*
X122897873Y-80502492D02*
X122978685Y-80637179D01*
X122978685Y-80637179D02*
X123059498Y-80717991D01*
X123059498Y-80717991D02*
X123194185Y-80798803D01*
X123194185Y-80798803D02*
X123274997Y-80825741D01*
X123274997Y-80825741D02*
X123382746Y-80825741D01*
X123382746Y-80825741D02*
X123490496Y-80771866D01*
X123490496Y-80771866D02*
X123544371Y-80717991D01*
X123544371Y-80717991D02*
X123598246Y-80610241D01*
X123598246Y-80610241D02*
X123598246Y-80556367D01*
X123598246Y-80556367D02*
X123409684Y-80367805D01*
X123409684Y-80367805D02*
X123301934Y-80475554D01*
X123894557Y-80367805D02*
X123328872Y-79802119D01*
X123328872Y-79802119D02*
X124217806Y-80044556D01*
X124217806Y-80044556D02*
X123652120Y-79478871D01*
X124487180Y-79775182D02*
X123921494Y-79209497D01*
X123921494Y-79209497D02*
X124056181Y-79074810D01*
X124056181Y-79074810D02*
X124163931Y-79020935D01*
X124163931Y-79020935D02*
X124271680Y-79020935D01*
X124271680Y-79020935D02*
X124352493Y-79047872D01*
X124352493Y-79047872D02*
X124487180Y-79128685D01*
X124487180Y-79128685D02*
X124567992Y-79209497D01*
X124567992Y-79209497D02*
X124648804Y-79344184D01*
X124648804Y-79344184D02*
X124675741Y-79424996D01*
X124675741Y-79424996D02*
X124675741Y-79532746D01*
X124675741Y-79532746D02*
X124621867Y-79640495D01*
X124621867Y-79640495D02*
X124487180Y-79775182D01*
X96843998Y-110820868D02*
X96763185Y-110847805D01*
X96763185Y-110847805D02*
X96682373Y-110928618D01*
X96682373Y-110928618D02*
X96628498Y-111036367D01*
X96628498Y-111036367D02*
X96628498Y-111144117D01*
X96628498Y-111144117D02*
X96655436Y-111224929D01*
X96655436Y-111224929D02*
X96736248Y-111359616D01*
X96736248Y-111359616D02*
X96817060Y-111440428D01*
X96817060Y-111440428D02*
X96951747Y-111521241D01*
X96951747Y-111521241D02*
X97032560Y-111548178D01*
X97032560Y-111548178D02*
X97140309Y-111548178D01*
X97140309Y-111548178D02*
X97248059Y-111494303D01*
X97248059Y-111494303D02*
X97301934Y-111440428D01*
X97301934Y-111440428D02*
X97355808Y-111332679D01*
X97355808Y-111332679D02*
X97355808Y-111278804D01*
X97355808Y-111278804D02*
X97167247Y-111090242D01*
X97167247Y-111090242D02*
X97059497Y-111197992D01*
X97652120Y-111090242D02*
X97086434Y-110524557D01*
X97086434Y-110524557D02*
X97301934Y-110309057D01*
X97301934Y-110309057D02*
X97382746Y-110282120D01*
X97382746Y-110282120D02*
X97436621Y-110282120D01*
X97436621Y-110282120D02*
X97517433Y-110309057D01*
X97517433Y-110309057D02*
X97598245Y-110389870D01*
X97598245Y-110389870D02*
X97625182Y-110470682D01*
X97625182Y-110470682D02*
X97625182Y-110524557D01*
X97625182Y-110524557D02*
X97598245Y-110605369D01*
X97598245Y-110605369D02*
X97382746Y-110820868D01*
X98514117Y-110228245D02*
X98190868Y-110551494D01*
X98352492Y-110389870D02*
X97786807Y-109824184D01*
X97786807Y-109824184D02*
X97813744Y-109958871D01*
X97813744Y-109958871D02*
X97813744Y-110066621D01*
X97813744Y-110066621D02*
X97786807Y-110147433D01*
X99052865Y-109689497D02*
X98729616Y-110012746D01*
X98891240Y-109851121D02*
X98325555Y-109285436D01*
X98325555Y-109285436D02*
X98352492Y-109420123D01*
X98352492Y-109420123D02*
X98352492Y-109527873D01*
X98352492Y-109527873D02*
X98325555Y-109608685D01*
X123097998Y-115900868D02*
X123017185Y-115927805D01*
X123017185Y-115927805D02*
X122936373Y-116008618D01*
X122936373Y-116008618D02*
X122882498Y-116116367D01*
X122882498Y-116116367D02*
X122882498Y-116224117D01*
X122882498Y-116224117D02*
X122909436Y-116304929D01*
X122909436Y-116304929D02*
X122990248Y-116439616D01*
X122990248Y-116439616D02*
X123071060Y-116520428D01*
X123071060Y-116520428D02*
X123205747Y-116601241D01*
X123205747Y-116601241D02*
X123286560Y-116628178D01*
X123286560Y-116628178D02*
X123394309Y-116628178D01*
X123394309Y-116628178D02*
X123502059Y-116574303D01*
X123502059Y-116574303D02*
X123555934Y-116520428D01*
X123555934Y-116520428D02*
X123609808Y-116412679D01*
X123609808Y-116412679D02*
X123609808Y-116358804D01*
X123609808Y-116358804D02*
X123421247Y-116170242D01*
X123421247Y-116170242D02*
X123313497Y-116277992D01*
X123906120Y-116170242D02*
X123340434Y-115604557D01*
X123340434Y-115604557D02*
X123555934Y-115389057D01*
X123555934Y-115389057D02*
X123636746Y-115362120D01*
X123636746Y-115362120D02*
X123690621Y-115362120D01*
X123690621Y-115362120D02*
X123771433Y-115389057D01*
X123771433Y-115389057D02*
X123852245Y-115469870D01*
X123852245Y-115469870D02*
X123879182Y-115550682D01*
X123879182Y-115550682D02*
X123879182Y-115604557D01*
X123879182Y-115604557D02*
X123852245Y-115685369D01*
X123852245Y-115685369D02*
X123636746Y-115900868D01*
X124768117Y-115308245D02*
X124444868Y-115631494D01*
X124606492Y-115469870D02*
X124040807Y-114904184D01*
X124040807Y-114904184D02*
X124067744Y-115038871D01*
X124067744Y-115038871D02*
X124067744Y-115146621D01*
X124067744Y-115146621D02*
X124040807Y-115227433D01*
X124768117Y-114661747D02*
X124687305Y-114688685D01*
X124687305Y-114688685D02*
X124633430Y-114688685D01*
X124633430Y-114688685D02*
X124552618Y-114661747D01*
X124552618Y-114661747D02*
X124525680Y-114634810D01*
X124525680Y-114634810D02*
X124498743Y-114553998D01*
X124498743Y-114553998D02*
X124498743Y-114500123D01*
X124498743Y-114500123D02*
X124525680Y-114419311D01*
X124525680Y-114419311D02*
X124633430Y-114311561D01*
X124633430Y-114311561D02*
X124714242Y-114284624D01*
X124714242Y-114284624D02*
X124768117Y-114284624D01*
X124768117Y-114284624D02*
X124848929Y-114311561D01*
X124848929Y-114311561D02*
X124875866Y-114338499D01*
X124875866Y-114338499D02*
X124902804Y-114419311D01*
X124902804Y-114419311D02*
X124902804Y-114473186D01*
X124902804Y-114473186D02*
X124875866Y-114553998D01*
X124875866Y-114553998D02*
X124768117Y-114661747D01*
X124768117Y-114661747D02*
X124741179Y-114742560D01*
X124741179Y-114742560D02*
X124741179Y-114796434D01*
X124741179Y-114796434D02*
X124768117Y-114877247D01*
X124768117Y-114877247D02*
X124875866Y-114984996D01*
X124875866Y-114984996D02*
X124956679Y-115011934D01*
X124956679Y-115011934D02*
X125010553Y-115011934D01*
X125010553Y-115011934D02*
X125091366Y-114984996D01*
X125091366Y-114984996D02*
X125199115Y-114877247D01*
X125199115Y-114877247D02*
X125226053Y-114796434D01*
X125226053Y-114796434D02*
X125226053Y-114742560D01*
X125226053Y-114742560D02*
X125199115Y-114661747D01*
X125199115Y-114661747D02*
X125091366Y-114553998D01*
X125091366Y-114553998D02*
X125010553Y-114527060D01*
X125010553Y-114527060D02*
X124956679Y-114527060D01*
X124956679Y-114527060D02*
X124875866Y-114553998D01*
X97513372Y-87691494D02*
X97432560Y-87718431D01*
X97432560Y-87718431D02*
X97351748Y-87799243D01*
X97351748Y-87799243D02*
X97297873Y-87906993D01*
X97297873Y-87906993D02*
X97297873Y-88014742D01*
X97297873Y-88014742D02*
X97324810Y-88095555D01*
X97324810Y-88095555D02*
X97405623Y-88230242D01*
X97405623Y-88230242D02*
X97486435Y-88311054D01*
X97486435Y-88311054D02*
X97621122Y-88391866D01*
X97621122Y-88391866D02*
X97701934Y-88418803D01*
X97701934Y-88418803D02*
X97809684Y-88418803D01*
X97809684Y-88418803D02*
X97917433Y-88364929D01*
X97917433Y-88364929D02*
X97971308Y-88311054D01*
X97971308Y-88311054D02*
X98025183Y-88203304D01*
X98025183Y-88203304D02*
X98025183Y-88149429D01*
X98025183Y-88149429D02*
X97836621Y-87960868D01*
X97836621Y-87960868D02*
X97728871Y-88068617D01*
X98321494Y-87960868D02*
X97755809Y-87395182D01*
X97755809Y-87395182D02*
X97971308Y-87179683D01*
X97971308Y-87179683D02*
X98052120Y-87152746D01*
X98052120Y-87152746D02*
X98105995Y-87152746D01*
X98105995Y-87152746D02*
X98186807Y-87179683D01*
X98186807Y-87179683D02*
X98267619Y-87260495D01*
X98267619Y-87260495D02*
X98294557Y-87341307D01*
X98294557Y-87341307D02*
X98294557Y-87395182D01*
X98294557Y-87395182D02*
X98267619Y-87475994D01*
X98267619Y-87475994D02*
X98052120Y-87691494D01*
X98752493Y-86775622D02*
X99129616Y-87152746D01*
X98402306Y-86694810D02*
X98671680Y-87233558D01*
X98671680Y-87233558D02*
X99021867Y-86883372D01*
X97513372Y-85151494D02*
X97432560Y-85178431D01*
X97432560Y-85178431D02*
X97351748Y-85259243D01*
X97351748Y-85259243D02*
X97297873Y-85366993D01*
X97297873Y-85366993D02*
X97297873Y-85474742D01*
X97297873Y-85474742D02*
X97324810Y-85555555D01*
X97324810Y-85555555D02*
X97405623Y-85690242D01*
X97405623Y-85690242D02*
X97486435Y-85771054D01*
X97486435Y-85771054D02*
X97621122Y-85851866D01*
X97621122Y-85851866D02*
X97701934Y-85878803D01*
X97701934Y-85878803D02*
X97809684Y-85878803D01*
X97809684Y-85878803D02*
X97917433Y-85824929D01*
X97917433Y-85824929D02*
X97971308Y-85771054D01*
X97971308Y-85771054D02*
X98025183Y-85663304D01*
X98025183Y-85663304D02*
X98025183Y-85609429D01*
X98025183Y-85609429D02*
X97836621Y-85420868D01*
X97836621Y-85420868D02*
X97728871Y-85528617D01*
X98321494Y-85420868D02*
X97755809Y-84855182D01*
X97755809Y-84855182D02*
X97971308Y-84639683D01*
X97971308Y-84639683D02*
X98052120Y-84612746D01*
X98052120Y-84612746D02*
X98105995Y-84612746D01*
X98105995Y-84612746D02*
X98186807Y-84639683D01*
X98186807Y-84639683D02*
X98267619Y-84720495D01*
X98267619Y-84720495D02*
X98294557Y-84801307D01*
X98294557Y-84801307D02*
X98294557Y-84855182D01*
X98294557Y-84855182D02*
X98267619Y-84935994D01*
X98267619Y-84935994D02*
X98052120Y-85151494D01*
X98267619Y-84343372D02*
X98617806Y-83993185D01*
X98617806Y-83993185D02*
X98644743Y-84397246D01*
X98644743Y-84397246D02*
X98725555Y-84316434D01*
X98725555Y-84316434D02*
X98806367Y-84289497D01*
X98806367Y-84289497D02*
X98860242Y-84289497D01*
X98860242Y-84289497D02*
X98941054Y-84316434D01*
X98941054Y-84316434D02*
X99075741Y-84451121D01*
X99075741Y-84451121D02*
X99102679Y-84531933D01*
X99102679Y-84531933D02*
X99102679Y-84585808D01*
X99102679Y-84585808D02*
X99075741Y-84666620D01*
X99075741Y-84666620D02*
X98914117Y-84828245D01*
X98914117Y-84828245D02*
X98833305Y-84855182D01*
X98833305Y-84855182D02*
X98779430Y-84855182D01*
X97486435Y-80098431D02*
X97405623Y-80125368D01*
X97405623Y-80125368D02*
X97324811Y-80206180D01*
X97324811Y-80206180D02*
X97270936Y-80313930D01*
X97270936Y-80313930D02*
X97270936Y-80421680D01*
X97270936Y-80421680D02*
X97297873Y-80502492D01*
X97297873Y-80502492D02*
X97378685Y-80637179D01*
X97378685Y-80637179D02*
X97459498Y-80717991D01*
X97459498Y-80717991D02*
X97594185Y-80798803D01*
X97594185Y-80798803D02*
X97674997Y-80825741D01*
X97674997Y-80825741D02*
X97782746Y-80825741D01*
X97782746Y-80825741D02*
X97890496Y-80771866D01*
X97890496Y-80771866D02*
X97944371Y-80717991D01*
X97944371Y-80717991D02*
X97998246Y-80610241D01*
X97998246Y-80610241D02*
X97998246Y-80556367D01*
X97998246Y-80556367D02*
X97809684Y-80367805D01*
X97809684Y-80367805D02*
X97701934Y-80475554D01*
X98294557Y-80367805D02*
X97728872Y-79802119D01*
X97728872Y-79802119D02*
X98617806Y-80044556D01*
X98617806Y-80044556D02*
X98052120Y-79478871D01*
X98887180Y-79775182D02*
X98321494Y-79209497D01*
X98321494Y-79209497D02*
X98456181Y-79074810D01*
X98456181Y-79074810D02*
X98563931Y-79020935D01*
X98563931Y-79020935D02*
X98671680Y-79020935D01*
X98671680Y-79020935D02*
X98752493Y-79047872D01*
X98752493Y-79047872D02*
X98887180Y-79128685D01*
X98887180Y-79128685D02*
X98967992Y-79209497D01*
X98967992Y-79209497D02*
X99048804Y-79344184D01*
X99048804Y-79344184D02*
X99075741Y-79424996D01*
X99075741Y-79424996D02*
X99075741Y-79532746D01*
X99075741Y-79532746D02*
X99021867Y-79640495D01*
X99021867Y-79640495D02*
X98887180Y-79775182D01*
X96989998Y-108280868D02*
X96909185Y-108307805D01*
X96909185Y-108307805D02*
X96828373Y-108388618D01*
X96828373Y-108388618D02*
X96774498Y-108496367D01*
X96774498Y-108496367D02*
X96774498Y-108604117D01*
X96774498Y-108604117D02*
X96801436Y-108684929D01*
X96801436Y-108684929D02*
X96882248Y-108819616D01*
X96882248Y-108819616D02*
X96963060Y-108900428D01*
X96963060Y-108900428D02*
X97097747Y-108981241D01*
X97097747Y-108981241D02*
X97178560Y-109008178D01*
X97178560Y-109008178D02*
X97286309Y-109008178D01*
X97286309Y-109008178D02*
X97394059Y-108954303D01*
X97394059Y-108954303D02*
X97447934Y-108900428D01*
X97447934Y-108900428D02*
X97501808Y-108792679D01*
X97501808Y-108792679D02*
X97501808Y-108738804D01*
X97501808Y-108738804D02*
X97313247Y-108550242D01*
X97313247Y-108550242D02*
X97205497Y-108657992D01*
X97798120Y-108550242D02*
X97232434Y-107984557D01*
X97232434Y-107984557D02*
X97447934Y-107769057D01*
X97447934Y-107769057D02*
X97528746Y-107742120D01*
X97528746Y-107742120D02*
X97582621Y-107742120D01*
X97582621Y-107742120D02*
X97663433Y-107769057D01*
X97663433Y-107769057D02*
X97744245Y-107849870D01*
X97744245Y-107849870D02*
X97771182Y-107930682D01*
X97771182Y-107930682D02*
X97771182Y-107984557D01*
X97771182Y-107984557D02*
X97744245Y-108065369D01*
X97744245Y-108065369D02*
X97528746Y-108280868D01*
X98660117Y-107688245D02*
X98336868Y-108011494D01*
X98498492Y-107849870D02*
X97932807Y-107284184D01*
X97932807Y-107284184D02*
X97959744Y-107418871D01*
X97959744Y-107418871D02*
X97959744Y-107526621D01*
X97959744Y-107526621D02*
X97932807Y-107607433D01*
X98444618Y-106772373D02*
X98498492Y-106718499D01*
X98498492Y-106718499D02*
X98579305Y-106691561D01*
X98579305Y-106691561D02*
X98633179Y-106691561D01*
X98633179Y-106691561D02*
X98713992Y-106718499D01*
X98713992Y-106718499D02*
X98848679Y-106799311D01*
X98848679Y-106799311D02*
X98983366Y-106933998D01*
X98983366Y-106933998D02*
X99064178Y-107068685D01*
X99064178Y-107068685D02*
X99091115Y-107149497D01*
X99091115Y-107149497D02*
X99091115Y-107203372D01*
X99091115Y-107203372D02*
X99064178Y-107284184D01*
X99064178Y-107284184D02*
X99010303Y-107338059D01*
X99010303Y-107338059D02*
X98929491Y-107364996D01*
X98929491Y-107364996D02*
X98875616Y-107364996D01*
X98875616Y-107364996D02*
X98794804Y-107338059D01*
X98794804Y-107338059D02*
X98660117Y-107257247D01*
X98660117Y-107257247D02*
X98525430Y-107122560D01*
X98525430Y-107122560D02*
X98444618Y-106987873D01*
X98444618Y-106987873D02*
X98417680Y-106907060D01*
X98417680Y-106907060D02*
X98417680Y-106853186D01*
X98417680Y-106853186D02*
X98444618Y-106772373D01*
X114904761Y-125524200D02*
X115019047Y-125562295D01*
X115019047Y-125562295D02*
X115209523Y-125562295D01*
X115209523Y-125562295D02*
X115285714Y-125524200D01*
X115285714Y-125524200D02*
X115323809Y-125486104D01*
X115323809Y-125486104D02*
X115361904Y-125409914D01*
X115361904Y-125409914D02*
X115361904Y-125333723D01*
X115361904Y-125333723D02*
X115323809Y-125257533D01*
X115323809Y-125257533D02*
X115285714Y-125219438D01*
X115285714Y-125219438D02*
X115209523Y-125181342D01*
X115209523Y-125181342D02*
X115057142Y-125143247D01*
X115057142Y-125143247D02*
X114980952Y-125105152D01*
X114980952Y-125105152D02*
X114942857Y-125067057D01*
X114942857Y-125067057D02*
X114904761Y-124990866D01*
X114904761Y-124990866D02*
X114904761Y-124914676D01*
X114904761Y-124914676D02*
X114942857Y-124838485D01*
X114942857Y-124838485D02*
X114980952Y-124800390D01*
X114980952Y-124800390D02*
X115057142Y-124762295D01*
X115057142Y-124762295D02*
X115247619Y-124762295D01*
X115247619Y-124762295D02*
X115361904Y-124800390D01*
X115628571Y-124762295D02*
X115819047Y-125562295D01*
X115819047Y-125562295D02*
X115971428Y-124990866D01*
X115971428Y-124990866D02*
X116123809Y-125562295D01*
X116123809Y-125562295D02*
X116314286Y-124762295D01*
X116619048Y-125562295D02*
X116619048Y-124762295D01*
X116619048Y-124762295D02*
X116809524Y-124762295D01*
X116809524Y-124762295D02*
X116923810Y-124800390D01*
X116923810Y-124800390D02*
X117000000Y-124876580D01*
X117000000Y-124876580D02*
X117038095Y-124952771D01*
X117038095Y-124952771D02*
X117076191Y-125105152D01*
X117076191Y-125105152D02*
X117076191Y-125219438D01*
X117076191Y-125219438D02*
X117038095Y-125371819D01*
X117038095Y-125371819D02*
X117000000Y-125448009D01*
X117000000Y-125448009D02*
X116923810Y-125524200D01*
X116923810Y-125524200D02*
X116809524Y-125562295D01*
X116809524Y-125562295D02*
X116619048Y-125562295D01*
X117419048Y-125562295D02*
X117419048Y-124762295D01*
X117952381Y-124762295D02*
X118104762Y-124762295D01*
X118104762Y-124762295D02*
X118180952Y-124800390D01*
X118180952Y-124800390D02*
X118257143Y-124876580D01*
X118257143Y-124876580D02*
X118295238Y-125028961D01*
X118295238Y-125028961D02*
X118295238Y-125295628D01*
X118295238Y-125295628D02*
X118257143Y-125448009D01*
X118257143Y-125448009D02*
X118180952Y-125524200D01*
X118180952Y-125524200D02*
X118104762Y-125562295D01*
X118104762Y-125562295D02*
X117952381Y-125562295D01*
X117952381Y-125562295D02*
X117876190Y-125524200D01*
X117876190Y-125524200D02*
X117800000Y-125448009D01*
X117800000Y-125448009D02*
X117761904Y-125295628D01*
X117761904Y-125295628D02*
X117761904Y-125028961D01*
X117761904Y-125028961D02*
X117800000Y-124876580D01*
X117800000Y-124876580D02*
X117876190Y-124800390D01*
X117876190Y-124800390D02*
X117952381Y-124762295D01*
X123097998Y-123520868D02*
X123017185Y-123547805D01*
X123017185Y-123547805D02*
X122936373Y-123628618D01*
X122936373Y-123628618D02*
X122882498Y-123736367D01*
X122882498Y-123736367D02*
X122882498Y-123844117D01*
X122882498Y-123844117D02*
X122909436Y-123924929D01*
X122909436Y-123924929D02*
X122990248Y-124059616D01*
X122990248Y-124059616D02*
X123071060Y-124140428D01*
X123071060Y-124140428D02*
X123205747Y-124221241D01*
X123205747Y-124221241D02*
X123286560Y-124248178D01*
X123286560Y-124248178D02*
X123394309Y-124248178D01*
X123394309Y-124248178D02*
X123502059Y-124194303D01*
X123502059Y-124194303D02*
X123555934Y-124140428D01*
X123555934Y-124140428D02*
X123609808Y-124032679D01*
X123609808Y-124032679D02*
X123609808Y-123978804D01*
X123609808Y-123978804D02*
X123421247Y-123790242D01*
X123421247Y-123790242D02*
X123313497Y-123897992D01*
X123906120Y-123790242D02*
X123340434Y-123224557D01*
X123340434Y-123224557D02*
X123555934Y-123009057D01*
X123555934Y-123009057D02*
X123636746Y-122982120D01*
X123636746Y-122982120D02*
X123690621Y-122982120D01*
X123690621Y-122982120D02*
X123771433Y-123009057D01*
X123771433Y-123009057D02*
X123852245Y-123089870D01*
X123852245Y-123089870D02*
X123879182Y-123170682D01*
X123879182Y-123170682D02*
X123879182Y-123224557D01*
X123879182Y-123224557D02*
X123852245Y-123305369D01*
X123852245Y-123305369D02*
X123636746Y-123520868D01*
X124768117Y-122928245D02*
X124444868Y-123251494D01*
X124606492Y-123089870D02*
X124040807Y-122524184D01*
X124040807Y-122524184D02*
X124067744Y-122658871D01*
X124067744Y-122658871D02*
X124067744Y-122766621D01*
X124067744Y-122766621D02*
X124040807Y-122847433D01*
X124687305Y-121877686D02*
X124579555Y-121985436D01*
X124579555Y-121985436D02*
X124552618Y-122066248D01*
X124552618Y-122066248D02*
X124552618Y-122120123D01*
X124552618Y-122120123D02*
X124579555Y-122254810D01*
X124579555Y-122254810D02*
X124660367Y-122389497D01*
X124660367Y-122389497D02*
X124875866Y-122604996D01*
X124875866Y-122604996D02*
X124956679Y-122631934D01*
X124956679Y-122631934D02*
X125010553Y-122631934D01*
X125010553Y-122631934D02*
X125091366Y-122604996D01*
X125091366Y-122604996D02*
X125199115Y-122497247D01*
X125199115Y-122497247D02*
X125226053Y-122416434D01*
X125226053Y-122416434D02*
X125226053Y-122362560D01*
X125226053Y-122362560D02*
X125199115Y-122281747D01*
X125199115Y-122281747D02*
X125064428Y-122147060D01*
X125064428Y-122147060D02*
X124983616Y-122120123D01*
X124983616Y-122120123D02*
X124929741Y-122120123D01*
X124929741Y-122120123D02*
X124848929Y-122147060D01*
X124848929Y-122147060D02*
X124741179Y-122254810D01*
X124741179Y-122254810D02*
X124714242Y-122335622D01*
X124714242Y-122335622D02*
X124714242Y-122389497D01*
X124714242Y-122389497D02*
X124741179Y-122470309D01*
X97413372Y-82611494D02*
X97332560Y-82638431D01*
X97332560Y-82638431D02*
X97251748Y-82719243D01*
X97251748Y-82719243D02*
X97197873Y-82826993D01*
X97197873Y-82826993D02*
X97197873Y-82934742D01*
X97197873Y-82934742D02*
X97224810Y-83015555D01*
X97224810Y-83015555D02*
X97305623Y-83150242D01*
X97305623Y-83150242D02*
X97386435Y-83231054D01*
X97386435Y-83231054D02*
X97521122Y-83311866D01*
X97521122Y-83311866D02*
X97601934Y-83338803D01*
X97601934Y-83338803D02*
X97709684Y-83338803D01*
X97709684Y-83338803D02*
X97817433Y-83284929D01*
X97817433Y-83284929D02*
X97871308Y-83231054D01*
X97871308Y-83231054D02*
X97925183Y-83123304D01*
X97925183Y-83123304D02*
X97925183Y-83069429D01*
X97925183Y-83069429D02*
X97736621Y-82880868D01*
X97736621Y-82880868D02*
X97628871Y-82988617D01*
X98221494Y-82880868D02*
X97655809Y-82315182D01*
X97655809Y-82315182D02*
X97871308Y-82099683D01*
X97871308Y-82099683D02*
X97952120Y-82072746D01*
X97952120Y-82072746D02*
X98005995Y-82072746D01*
X98005995Y-82072746D02*
X98086807Y-82099683D01*
X98086807Y-82099683D02*
X98167619Y-82180495D01*
X98167619Y-82180495D02*
X98194557Y-82261307D01*
X98194557Y-82261307D02*
X98194557Y-82315182D01*
X98194557Y-82315182D02*
X98167619Y-82395994D01*
X98167619Y-82395994D02*
X97952120Y-82611494D01*
X98248432Y-81830309D02*
X98248432Y-81776434D01*
X98248432Y-81776434D02*
X98275369Y-81695622D01*
X98275369Y-81695622D02*
X98410056Y-81560935D01*
X98410056Y-81560935D02*
X98490868Y-81533998D01*
X98490868Y-81533998D02*
X98544743Y-81533998D01*
X98544743Y-81533998D02*
X98625555Y-81560935D01*
X98625555Y-81560935D02*
X98679430Y-81614810D01*
X98679430Y-81614810D02*
X98733305Y-81722559D01*
X98733305Y-81722559D02*
X98733305Y-82369057D01*
X98733305Y-82369057D02*
X99083491Y-82018871D01*
X122922407Y-82958584D02*
X123272593Y-82608398D01*
X123272593Y-82608398D02*
X123299531Y-83012459D01*
X123299531Y-83012459D02*
X123380343Y-82931646D01*
X123380343Y-82931646D02*
X123461155Y-82904709D01*
X123461155Y-82904709D02*
X123515030Y-82904709D01*
X123515030Y-82904709D02*
X123595842Y-82931646D01*
X123595842Y-82931646D02*
X123730529Y-83066333D01*
X123730529Y-83066333D02*
X123757467Y-83147146D01*
X123757467Y-83147146D02*
X123757467Y-83201020D01*
X123757467Y-83201020D02*
X123730529Y-83281833D01*
X123730529Y-83281833D02*
X123568905Y-83443457D01*
X123568905Y-83443457D02*
X123488093Y-83470394D01*
X123488093Y-83470394D02*
X123434218Y-83470394D01*
X123434218Y-82446773D02*
X124188465Y-82823897D01*
X124188465Y-82823897D02*
X123811342Y-82069649D01*
X123946028Y-81934963D02*
X124296215Y-81584776D01*
X124296215Y-81584776D02*
X124323152Y-81988837D01*
X124323152Y-81988837D02*
X124403964Y-81908025D01*
X124403964Y-81908025D02*
X124484776Y-81881088D01*
X124484776Y-81881088D02*
X124538651Y-81881088D01*
X124538651Y-81881088D02*
X124619464Y-81908025D01*
X124619464Y-81908025D02*
X124754151Y-82042712D01*
X124754151Y-82042712D02*
X124781088Y-82123524D01*
X124781088Y-82123524D02*
X124781088Y-82177399D01*
X124781088Y-82177399D02*
X124754151Y-82258211D01*
X124754151Y-82258211D02*
X124592526Y-82419836D01*
X124592526Y-82419836D02*
X124511714Y-82446773D01*
X124511714Y-82446773D02*
X124457839Y-82446773D01*
X125023525Y-82096587D02*
X125454523Y-81665588D01*
X125239024Y-81180715D02*
X125427586Y-80992153D01*
X125804709Y-81207652D02*
X125535335Y-81477026D01*
X125535335Y-81477026D02*
X124969650Y-80911341D01*
X124969650Y-80911341D02*
X125239024Y-80641967D01*
X126047146Y-80965215D02*
X125481461Y-80399530D01*
X125481461Y-80399530D02*
X126370395Y-80641967D01*
X126370395Y-80641967D02*
X125804710Y-80076281D01*
X97486435Y-92798431D02*
X97405623Y-92825368D01*
X97405623Y-92825368D02*
X97324811Y-92906180D01*
X97324811Y-92906180D02*
X97270936Y-93013930D01*
X97270936Y-93013930D02*
X97270936Y-93121680D01*
X97270936Y-93121680D02*
X97297873Y-93202492D01*
X97297873Y-93202492D02*
X97378685Y-93337179D01*
X97378685Y-93337179D02*
X97459498Y-93417991D01*
X97459498Y-93417991D02*
X97594185Y-93498803D01*
X97594185Y-93498803D02*
X97674997Y-93525741D01*
X97674997Y-93525741D02*
X97782746Y-93525741D01*
X97782746Y-93525741D02*
X97890496Y-93471866D01*
X97890496Y-93471866D02*
X97944371Y-93417991D01*
X97944371Y-93417991D02*
X97998246Y-93310241D01*
X97998246Y-93310241D02*
X97998246Y-93256367D01*
X97998246Y-93256367D02*
X97809684Y-93067805D01*
X97809684Y-93067805D02*
X97701934Y-93175554D01*
X98294557Y-93067805D02*
X97728872Y-92502119D01*
X97728872Y-92502119D02*
X98617806Y-92744556D01*
X98617806Y-92744556D02*
X98052120Y-92178871D01*
X98887180Y-92475182D02*
X98321494Y-91909497D01*
X98321494Y-91909497D02*
X98456181Y-91774810D01*
X98456181Y-91774810D02*
X98563931Y-91720935D01*
X98563931Y-91720935D02*
X98671680Y-91720935D01*
X98671680Y-91720935D02*
X98752493Y-91747872D01*
X98752493Y-91747872D02*
X98887180Y-91828685D01*
X98887180Y-91828685D02*
X98967992Y-91909497D01*
X98967992Y-91909497D02*
X99048804Y-92044184D01*
X99048804Y-92044184D02*
X99075741Y-92124996D01*
X99075741Y-92124996D02*
X99075741Y-92232746D01*
X99075741Y-92232746D02*
X99021867Y-92340495D01*
X99021867Y-92340495D02*
X98887180Y-92475182D01*
X123097998Y-120980868D02*
X123017185Y-121007805D01*
X123017185Y-121007805D02*
X122936373Y-121088618D01*
X122936373Y-121088618D02*
X122882498Y-121196367D01*
X122882498Y-121196367D02*
X122882498Y-121304117D01*
X122882498Y-121304117D02*
X122909436Y-121384929D01*
X122909436Y-121384929D02*
X122990248Y-121519616D01*
X122990248Y-121519616D02*
X123071060Y-121600428D01*
X123071060Y-121600428D02*
X123205747Y-121681241D01*
X123205747Y-121681241D02*
X123286560Y-121708178D01*
X123286560Y-121708178D02*
X123394309Y-121708178D01*
X123394309Y-121708178D02*
X123502059Y-121654303D01*
X123502059Y-121654303D02*
X123555934Y-121600428D01*
X123555934Y-121600428D02*
X123609808Y-121492679D01*
X123609808Y-121492679D02*
X123609808Y-121438804D01*
X123609808Y-121438804D02*
X123421247Y-121250242D01*
X123421247Y-121250242D02*
X123313497Y-121357992D01*
X123906120Y-121250242D02*
X123340434Y-120684557D01*
X123340434Y-120684557D02*
X123555934Y-120469057D01*
X123555934Y-120469057D02*
X123636746Y-120442120D01*
X123636746Y-120442120D02*
X123690621Y-120442120D01*
X123690621Y-120442120D02*
X123771433Y-120469057D01*
X123771433Y-120469057D02*
X123852245Y-120549870D01*
X123852245Y-120549870D02*
X123879182Y-120630682D01*
X123879182Y-120630682D02*
X123879182Y-120684557D01*
X123879182Y-120684557D02*
X123852245Y-120765369D01*
X123852245Y-120765369D02*
X123636746Y-120980868D01*
X124768117Y-120388245D02*
X124444868Y-120711494D01*
X124606492Y-120549870D02*
X124040807Y-119984184D01*
X124040807Y-119984184D02*
X124067744Y-120118871D01*
X124067744Y-120118871D02*
X124067744Y-120226621D01*
X124067744Y-120226621D02*
X124040807Y-120307433D01*
X124390993Y-119633998D02*
X124768117Y-119256874D01*
X124768117Y-119256874D02*
X125091366Y-120064996D01*
X123097998Y-103200868D02*
X123017185Y-103227805D01*
X123017185Y-103227805D02*
X122936373Y-103308618D01*
X122936373Y-103308618D02*
X122882498Y-103416367D01*
X122882498Y-103416367D02*
X122882498Y-103524117D01*
X122882498Y-103524117D02*
X122909436Y-103604929D01*
X122909436Y-103604929D02*
X122990248Y-103739616D01*
X122990248Y-103739616D02*
X123071060Y-103820428D01*
X123071060Y-103820428D02*
X123205747Y-103901241D01*
X123205747Y-103901241D02*
X123286560Y-103928178D01*
X123286560Y-103928178D02*
X123394309Y-103928178D01*
X123394309Y-103928178D02*
X123502059Y-103874303D01*
X123502059Y-103874303D02*
X123555934Y-103820428D01*
X123555934Y-103820428D02*
X123609808Y-103712679D01*
X123609808Y-103712679D02*
X123609808Y-103658804D01*
X123609808Y-103658804D02*
X123421247Y-103470242D01*
X123421247Y-103470242D02*
X123313497Y-103577992D01*
X123906120Y-103470242D02*
X123340434Y-102904557D01*
X123340434Y-102904557D02*
X123555934Y-102689057D01*
X123555934Y-102689057D02*
X123636746Y-102662120D01*
X123636746Y-102662120D02*
X123690621Y-102662120D01*
X123690621Y-102662120D02*
X123771433Y-102689057D01*
X123771433Y-102689057D02*
X123852245Y-102769870D01*
X123852245Y-102769870D02*
X123879182Y-102850682D01*
X123879182Y-102850682D02*
X123879182Y-102904557D01*
X123879182Y-102904557D02*
X123852245Y-102985369D01*
X123852245Y-102985369D02*
X123636746Y-103200868D01*
X123933057Y-102419683D02*
X123933057Y-102365809D01*
X123933057Y-102365809D02*
X123959995Y-102284996D01*
X123959995Y-102284996D02*
X124094682Y-102150309D01*
X124094682Y-102150309D02*
X124175494Y-102123372D01*
X124175494Y-102123372D02*
X124229369Y-102123372D01*
X124229369Y-102123372D02*
X124310181Y-102150309D01*
X124310181Y-102150309D02*
X124364056Y-102204184D01*
X124364056Y-102204184D02*
X124417930Y-102311934D01*
X124417930Y-102311934D02*
X124417930Y-102958431D01*
X124417930Y-102958431D02*
X124768117Y-102608245D01*
X124471805Y-101880935D02*
X124471805Y-101827060D01*
X124471805Y-101827060D02*
X124498743Y-101746248D01*
X124498743Y-101746248D02*
X124633430Y-101611561D01*
X124633430Y-101611561D02*
X124714242Y-101584624D01*
X124714242Y-101584624D02*
X124768117Y-101584624D01*
X124768117Y-101584624D02*
X124848929Y-101611561D01*
X124848929Y-101611561D02*
X124902804Y-101665436D01*
X124902804Y-101665436D02*
X124956679Y-101773186D01*
X124956679Y-101773186D02*
X124956679Y-102419683D01*
X124956679Y-102419683D02*
X125306865Y-102069497D01*
X123097998Y-108290868D02*
X123017185Y-108317805D01*
X123017185Y-108317805D02*
X122936373Y-108398618D01*
X122936373Y-108398618D02*
X122882498Y-108506367D01*
X122882498Y-108506367D02*
X122882498Y-108614117D01*
X122882498Y-108614117D02*
X122909436Y-108694929D01*
X122909436Y-108694929D02*
X122990248Y-108829616D01*
X122990248Y-108829616D02*
X123071060Y-108910428D01*
X123071060Y-108910428D02*
X123205747Y-108991241D01*
X123205747Y-108991241D02*
X123286560Y-109018178D01*
X123286560Y-109018178D02*
X123394309Y-109018178D01*
X123394309Y-109018178D02*
X123502059Y-108964303D01*
X123502059Y-108964303D02*
X123555934Y-108910428D01*
X123555934Y-108910428D02*
X123609808Y-108802679D01*
X123609808Y-108802679D02*
X123609808Y-108748804D01*
X123609808Y-108748804D02*
X123421247Y-108560242D01*
X123421247Y-108560242D02*
X123313497Y-108667992D01*
X123906120Y-108560242D02*
X123340434Y-107994557D01*
X123340434Y-107994557D02*
X123555934Y-107779057D01*
X123555934Y-107779057D02*
X123636746Y-107752120D01*
X123636746Y-107752120D02*
X123690621Y-107752120D01*
X123690621Y-107752120D02*
X123771433Y-107779057D01*
X123771433Y-107779057D02*
X123852245Y-107859870D01*
X123852245Y-107859870D02*
X123879182Y-107940682D01*
X123879182Y-107940682D02*
X123879182Y-107994557D01*
X123879182Y-107994557D02*
X123852245Y-108075369D01*
X123852245Y-108075369D02*
X123636746Y-108290868D01*
X123933057Y-107509683D02*
X123933057Y-107455809D01*
X123933057Y-107455809D02*
X123959995Y-107374996D01*
X123959995Y-107374996D02*
X124094682Y-107240309D01*
X124094682Y-107240309D02*
X124175494Y-107213372D01*
X124175494Y-107213372D02*
X124229369Y-107213372D01*
X124229369Y-107213372D02*
X124310181Y-107240309D01*
X124310181Y-107240309D02*
X124364056Y-107294184D01*
X124364056Y-107294184D02*
X124417930Y-107401934D01*
X124417930Y-107401934D02*
X124417930Y-108048431D01*
X124417930Y-108048431D02*
X124768117Y-107698245D01*
X125306865Y-107159497D02*
X124983616Y-107482746D01*
X125145240Y-107321121D02*
X124579555Y-106755436D01*
X124579555Y-106755436D02*
X124606492Y-106890123D01*
X124606492Y-106890123D02*
X124606492Y-106997873D01*
X124606492Y-106997873D02*
X124579555Y-107078685D01*
X122953406Y-75527585D02*
X123707653Y-75904709D01*
X123707653Y-75904709D02*
X123330529Y-75150462D01*
X123977027Y-75042712D02*
X124084776Y-74988838D01*
X124084776Y-74988838D02*
X124138651Y-74988838D01*
X124138651Y-74988838D02*
X124219463Y-75015775D01*
X124219463Y-75015775D02*
X124300276Y-75096587D01*
X124300276Y-75096587D02*
X124327213Y-75177399D01*
X124327213Y-75177399D02*
X124327213Y-75231274D01*
X124327213Y-75231274D02*
X124300276Y-75312086D01*
X124300276Y-75312086D02*
X124084776Y-75527586D01*
X124084776Y-75527586D02*
X123519091Y-74961900D01*
X123519091Y-74961900D02*
X123707653Y-74773338D01*
X123707653Y-74773338D02*
X123788465Y-74746401D01*
X123788465Y-74746401D02*
X123842340Y-74746401D01*
X123842340Y-74746401D02*
X123923152Y-74773338D01*
X123923152Y-74773338D02*
X123977027Y-74827213D01*
X123977027Y-74827213D02*
X124003964Y-74908025D01*
X124003964Y-74908025D02*
X124003964Y-74961900D01*
X124003964Y-74961900D02*
X123977027Y-75042712D01*
X123977027Y-75042712D02*
X123788465Y-75231274D01*
X124084776Y-74396215D02*
X124542712Y-74854151D01*
X124542712Y-74854151D02*
X124623524Y-74881088D01*
X124623524Y-74881088D02*
X124677399Y-74881088D01*
X124677399Y-74881088D02*
X124758211Y-74854151D01*
X124758211Y-74854151D02*
X124865961Y-74746401D01*
X124865961Y-74746401D02*
X124892898Y-74665589D01*
X124892898Y-74665589D02*
X124892898Y-74611714D01*
X124892898Y-74611714D02*
X124865961Y-74530902D01*
X124865961Y-74530902D02*
X124408025Y-74072966D01*
X125189210Y-74369277D02*
X125296959Y-74315403D01*
X125296959Y-74315403D02*
X125431646Y-74180716D01*
X125431646Y-74180716D02*
X125458584Y-74099903D01*
X125458584Y-74099903D02*
X125458584Y-74046029D01*
X125458584Y-74046029D02*
X125431646Y-73965216D01*
X125431646Y-73965216D02*
X125377771Y-73911342D01*
X125377771Y-73911342D02*
X125296959Y-73884404D01*
X125296959Y-73884404D02*
X125243084Y-73884404D01*
X125243084Y-73884404D02*
X125162272Y-73911342D01*
X125162272Y-73911342D02*
X125027585Y-73992154D01*
X125027585Y-73992154D02*
X124946773Y-74019091D01*
X124946773Y-74019091D02*
X124892898Y-74019091D01*
X124892898Y-74019091D02*
X124812086Y-73992154D01*
X124812086Y-73992154D02*
X124758211Y-73938279D01*
X124758211Y-73938279D02*
X124731274Y-73857467D01*
X124731274Y-73857467D02*
X124731274Y-73803592D01*
X124731274Y-73803592D02*
X124758211Y-73722780D01*
X124758211Y-73722780D02*
X124892898Y-73588093D01*
X124892898Y-73588093D02*
X125000648Y-73534218D01*
X123086435Y-105498431D02*
X123005623Y-105525368D01*
X123005623Y-105525368D02*
X122924811Y-105606180D01*
X122924811Y-105606180D02*
X122870936Y-105713930D01*
X122870936Y-105713930D02*
X122870936Y-105821680D01*
X122870936Y-105821680D02*
X122897873Y-105902492D01*
X122897873Y-105902492D02*
X122978685Y-106037179D01*
X122978685Y-106037179D02*
X123059498Y-106117991D01*
X123059498Y-106117991D02*
X123194185Y-106198803D01*
X123194185Y-106198803D02*
X123274997Y-106225741D01*
X123274997Y-106225741D02*
X123382746Y-106225741D01*
X123382746Y-106225741D02*
X123490496Y-106171866D01*
X123490496Y-106171866D02*
X123544371Y-106117991D01*
X123544371Y-106117991D02*
X123598246Y-106010241D01*
X123598246Y-106010241D02*
X123598246Y-105956367D01*
X123598246Y-105956367D02*
X123409684Y-105767805D01*
X123409684Y-105767805D02*
X123301934Y-105875554D01*
X123894557Y-105767805D02*
X123328872Y-105202119D01*
X123328872Y-105202119D02*
X124217806Y-105444556D01*
X124217806Y-105444556D02*
X123652120Y-104878871D01*
X124487180Y-105175182D02*
X123921494Y-104609497D01*
X123921494Y-104609497D02*
X124056181Y-104474810D01*
X124056181Y-104474810D02*
X124163931Y-104420935D01*
X124163931Y-104420935D02*
X124271680Y-104420935D01*
X124271680Y-104420935D02*
X124352493Y-104447872D01*
X124352493Y-104447872D02*
X124487180Y-104528685D01*
X124487180Y-104528685D02*
X124567992Y-104609497D01*
X124567992Y-104609497D02*
X124648804Y-104744184D01*
X124648804Y-104744184D02*
X124675741Y-104824996D01*
X124675741Y-104824996D02*
X124675741Y-104932746D01*
X124675741Y-104932746D02*
X124621867Y-105040495D01*
X124621867Y-105040495D02*
X124487180Y-105175182D01*
X97513372Y-95311494D02*
X97432560Y-95338431D01*
X97432560Y-95338431D02*
X97351748Y-95419243D01*
X97351748Y-95419243D02*
X97297873Y-95526993D01*
X97297873Y-95526993D02*
X97297873Y-95634742D01*
X97297873Y-95634742D02*
X97324810Y-95715555D01*
X97324810Y-95715555D02*
X97405623Y-95850242D01*
X97405623Y-95850242D02*
X97486435Y-95931054D01*
X97486435Y-95931054D02*
X97621122Y-96011866D01*
X97621122Y-96011866D02*
X97701934Y-96038803D01*
X97701934Y-96038803D02*
X97809684Y-96038803D01*
X97809684Y-96038803D02*
X97917433Y-95984929D01*
X97917433Y-95984929D02*
X97971308Y-95931054D01*
X97971308Y-95931054D02*
X98025183Y-95823304D01*
X98025183Y-95823304D02*
X98025183Y-95769429D01*
X98025183Y-95769429D02*
X97836621Y-95580868D01*
X97836621Y-95580868D02*
X97728871Y-95688617D01*
X98321494Y-95580868D02*
X97755809Y-95015182D01*
X97755809Y-95015182D02*
X97971308Y-94799683D01*
X97971308Y-94799683D02*
X98052120Y-94772746D01*
X98052120Y-94772746D02*
X98105995Y-94772746D01*
X98105995Y-94772746D02*
X98186807Y-94799683D01*
X98186807Y-94799683D02*
X98267619Y-94880495D01*
X98267619Y-94880495D02*
X98294557Y-94961307D01*
X98294557Y-94961307D02*
X98294557Y-95015182D01*
X98294557Y-95015182D02*
X98267619Y-95095994D01*
X98267619Y-95095994D02*
X98052120Y-95311494D01*
X98563931Y-94207060D02*
X98456181Y-94314810D01*
X98456181Y-94314810D02*
X98429244Y-94395622D01*
X98429244Y-94395622D02*
X98429244Y-94449497D01*
X98429244Y-94449497D02*
X98456181Y-94584184D01*
X98456181Y-94584184D02*
X98536993Y-94718871D01*
X98536993Y-94718871D02*
X98752493Y-94934370D01*
X98752493Y-94934370D02*
X98833305Y-94961307D01*
X98833305Y-94961307D02*
X98887180Y-94961307D01*
X98887180Y-94961307D02*
X98967992Y-94934370D01*
X98967992Y-94934370D02*
X99075741Y-94826620D01*
X99075741Y-94826620D02*
X99102679Y-94745808D01*
X99102679Y-94745808D02*
X99102679Y-94691933D01*
X99102679Y-94691933D02*
X99075741Y-94611121D01*
X99075741Y-94611121D02*
X98941054Y-94476434D01*
X98941054Y-94476434D02*
X98860242Y-94449497D01*
X98860242Y-94449497D02*
X98806367Y-94449497D01*
X98806367Y-94449497D02*
X98725555Y-94476434D01*
X98725555Y-94476434D02*
X98617806Y-94584184D01*
X98617806Y-94584184D02*
X98590868Y-94664996D01*
X98590868Y-94664996D02*
X98590868Y-94718871D01*
X98590868Y-94718871D02*
X98617806Y-94799683D01*
X97513372Y-100391494D02*
X97432560Y-100418431D01*
X97432560Y-100418431D02*
X97351748Y-100499243D01*
X97351748Y-100499243D02*
X97297873Y-100606993D01*
X97297873Y-100606993D02*
X97297873Y-100714742D01*
X97297873Y-100714742D02*
X97324810Y-100795555D01*
X97324810Y-100795555D02*
X97405623Y-100930242D01*
X97405623Y-100930242D02*
X97486435Y-101011054D01*
X97486435Y-101011054D02*
X97621122Y-101091866D01*
X97621122Y-101091866D02*
X97701934Y-101118803D01*
X97701934Y-101118803D02*
X97809684Y-101118803D01*
X97809684Y-101118803D02*
X97917433Y-101064929D01*
X97917433Y-101064929D02*
X97971308Y-101011054D01*
X97971308Y-101011054D02*
X98025183Y-100903304D01*
X98025183Y-100903304D02*
X98025183Y-100849429D01*
X98025183Y-100849429D02*
X97836621Y-100660868D01*
X97836621Y-100660868D02*
X97728871Y-100768617D01*
X98321494Y-100660868D02*
X97755809Y-100095182D01*
X97755809Y-100095182D02*
X97971308Y-99879683D01*
X97971308Y-99879683D02*
X98052120Y-99852746D01*
X98052120Y-99852746D02*
X98105995Y-99852746D01*
X98105995Y-99852746D02*
X98186807Y-99879683D01*
X98186807Y-99879683D02*
X98267619Y-99960495D01*
X98267619Y-99960495D02*
X98294557Y-100041307D01*
X98294557Y-100041307D02*
X98294557Y-100095182D01*
X98294557Y-100095182D02*
X98267619Y-100175994D01*
X98267619Y-100175994D02*
X98052120Y-100391494D01*
X98644743Y-99691121D02*
X98563931Y-99718059D01*
X98563931Y-99718059D02*
X98510056Y-99718059D01*
X98510056Y-99718059D02*
X98429244Y-99691121D01*
X98429244Y-99691121D02*
X98402306Y-99664184D01*
X98402306Y-99664184D02*
X98375369Y-99583372D01*
X98375369Y-99583372D02*
X98375369Y-99529497D01*
X98375369Y-99529497D02*
X98402306Y-99448685D01*
X98402306Y-99448685D02*
X98510056Y-99340935D01*
X98510056Y-99340935D02*
X98590868Y-99313998D01*
X98590868Y-99313998D02*
X98644743Y-99313998D01*
X98644743Y-99313998D02*
X98725555Y-99340935D01*
X98725555Y-99340935D02*
X98752493Y-99367872D01*
X98752493Y-99367872D02*
X98779430Y-99448685D01*
X98779430Y-99448685D02*
X98779430Y-99502559D01*
X98779430Y-99502559D02*
X98752493Y-99583372D01*
X98752493Y-99583372D02*
X98644743Y-99691121D01*
X98644743Y-99691121D02*
X98617806Y-99771933D01*
X98617806Y-99771933D02*
X98617806Y-99825808D01*
X98617806Y-99825808D02*
X98644743Y-99906620D01*
X98644743Y-99906620D02*
X98752493Y-100014370D01*
X98752493Y-100014370D02*
X98833305Y-100041307D01*
X98833305Y-100041307D02*
X98887180Y-100041307D01*
X98887180Y-100041307D02*
X98967992Y-100014370D01*
X98967992Y-100014370D02*
X99075741Y-99906620D01*
X99075741Y-99906620D02*
X99102679Y-99825808D01*
X99102679Y-99825808D02*
X99102679Y-99771933D01*
X99102679Y-99771933D02*
X99075741Y-99691121D01*
X99075741Y-99691121D02*
X98967992Y-99583372D01*
X98967992Y-99583372D02*
X98887180Y-99556434D01*
X98887180Y-99556434D02*
X98833305Y-99556434D01*
X98833305Y-99556434D02*
X98752493Y-99583372D01*
X123097998Y-90246868D02*
X123017185Y-90273805D01*
X123017185Y-90273805D02*
X122936373Y-90354618D01*
X122936373Y-90354618D02*
X122882498Y-90462367D01*
X122882498Y-90462367D02*
X122882498Y-90570117D01*
X122882498Y-90570117D02*
X122909436Y-90650929D01*
X122909436Y-90650929D02*
X122990248Y-90785616D01*
X122990248Y-90785616D02*
X123071060Y-90866428D01*
X123071060Y-90866428D02*
X123205747Y-90947241D01*
X123205747Y-90947241D02*
X123286560Y-90974178D01*
X123286560Y-90974178D02*
X123394309Y-90974178D01*
X123394309Y-90974178D02*
X123502059Y-90920303D01*
X123502059Y-90920303D02*
X123555934Y-90866428D01*
X123555934Y-90866428D02*
X123609808Y-90758679D01*
X123609808Y-90758679D02*
X123609808Y-90704804D01*
X123609808Y-90704804D02*
X123421247Y-90516242D01*
X123421247Y-90516242D02*
X123313497Y-90623992D01*
X123906120Y-90516242D02*
X123340434Y-89950557D01*
X123340434Y-89950557D02*
X123555934Y-89735057D01*
X123555934Y-89735057D02*
X123636746Y-89708120D01*
X123636746Y-89708120D02*
X123690621Y-89708120D01*
X123690621Y-89708120D02*
X123771433Y-89735057D01*
X123771433Y-89735057D02*
X123852245Y-89815870D01*
X123852245Y-89815870D02*
X123879182Y-89896682D01*
X123879182Y-89896682D02*
X123879182Y-89950557D01*
X123879182Y-89950557D02*
X123852245Y-90031369D01*
X123852245Y-90031369D02*
X123636746Y-90246868D01*
X123933057Y-89465683D02*
X123933057Y-89411809D01*
X123933057Y-89411809D02*
X123959995Y-89330996D01*
X123959995Y-89330996D02*
X124094682Y-89196309D01*
X124094682Y-89196309D02*
X124175494Y-89169372D01*
X124175494Y-89169372D02*
X124229369Y-89169372D01*
X124229369Y-89169372D02*
X124310181Y-89196309D01*
X124310181Y-89196309D02*
X124364056Y-89250184D01*
X124364056Y-89250184D02*
X124417930Y-89357934D01*
X124417930Y-89357934D02*
X124417930Y-90004431D01*
X124417930Y-90004431D02*
X124768117Y-89654245D01*
X124768117Y-89007747D02*
X124687305Y-89034685D01*
X124687305Y-89034685D02*
X124633430Y-89034685D01*
X124633430Y-89034685D02*
X124552618Y-89007747D01*
X124552618Y-89007747D02*
X124525680Y-88980810D01*
X124525680Y-88980810D02*
X124498743Y-88899998D01*
X124498743Y-88899998D02*
X124498743Y-88846123D01*
X124498743Y-88846123D02*
X124525680Y-88765311D01*
X124525680Y-88765311D02*
X124633430Y-88657561D01*
X124633430Y-88657561D02*
X124714242Y-88630624D01*
X124714242Y-88630624D02*
X124768117Y-88630624D01*
X124768117Y-88630624D02*
X124848929Y-88657561D01*
X124848929Y-88657561D02*
X124875866Y-88684499D01*
X124875866Y-88684499D02*
X124902804Y-88765311D01*
X124902804Y-88765311D02*
X124902804Y-88819186D01*
X124902804Y-88819186D02*
X124875866Y-88899998D01*
X124875866Y-88899998D02*
X124768117Y-89007747D01*
X124768117Y-89007747D02*
X124741179Y-89088560D01*
X124741179Y-89088560D02*
X124741179Y-89142434D01*
X124741179Y-89142434D02*
X124768117Y-89223247D01*
X124768117Y-89223247D02*
X124875866Y-89330996D01*
X124875866Y-89330996D02*
X124956679Y-89357934D01*
X124956679Y-89357934D02*
X125010553Y-89357934D01*
X125010553Y-89357934D02*
X125091366Y-89330996D01*
X125091366Y-89330996D02*
X125199115Y-89223247D01*
X125199115Y-89223247D02*
X125226053Y-89142434D01*
X125226053Y-89142434D02*
X125226053Y-89088560D01*
X125226053Y-89088560D02*
X125199115Y-89007747D01*
X125199115Y-89007747D02*
X125091366Y-88899998D01*
X125091366Y-88899998D02*
X125010553Y-88873060D01*
X125010553Y-88873060D02*
X124956679Y-88873060D01*
X124956679Y-88873060D02*
X124875866Y-88899998D01*
X97413372Y-77521494D02*
X97332560Y-77548431D01*
X97332560Y-77548431D02*
X97251748Y-77629243D01*
X97251748Y-77629243D02*
X97197873Y-77736993D01*
X97197873Y-77736993D02*
X97197873Y-77844742D01*
X97197873Y-77844742D02*
X97224810Y-77925555D01*
X97224810Y-77925555D02*
X97305623Y-78060242D01*
X97305623Y-78060242D02*
X97386435Y-78141054D01*
X97386435Y-78141054D02*
X97521122Y-78221866D01*
X97521122Y-78221866D02*
X97601934Y-78248803D01*
X97601934Y-78248803D02*
X97709684Y-78248803D01*
X97709684Y-78248803D02*
X97817433Y-78194929D01*
X97817433Y-78194929D02*
X97871308Y-78141054D01*
X97871308Y-78141054D02*
X97925183Y-78033304D01*
X97925183Y-78033304D02*
X97925183Y-77979429D01*
X97925183Y-77979429D02*
X97736621Y-77790868D01*
X97736621Y-77790868D02*
X97628871Y-77898617D01*
X98221494Y-77790868D02*
X97655809Y-77225182D01*
X97655809Y-77225182D02*
X97871308Y-77009683D01*
X97871308Y-77009683D02*
X97952120Y-76982746D01*
X97952120Y-76982746D02*
X98005995Y-76982746D01*
X98005995Y-76982746D02*
X98086807Y-77009683D01*
X98086807Y-77009683D02*
X98167619Y-77090495D01*
X98167619Y-77090495D02*
X98194557Y-77171307D01*
X98194557Y-77171307D02*
X98194557Y-77225182D01*
X98194557Y-77225182D02*
X98167619Y-77305994D01*
X98167619Y-77305994D02*
X97952120Y-77521494D01*
X99083491Y-76928871D02*
X98760242Y-77252120D01*
X98921867Y-77090495D02*
X98356181Y-76524810D01*
X98356181Y-76524810D02*
X98383119Y-76659497D01*
X98383119Y-76659497D02*
X98383119Y-76767246D01*
X98383119Y-76767246D02*
X98356181Y-76848059D01*
X97513372Y-74991494D02*
X97432560Y-75018431D01*
X97432560Y-75018431D02*
X97351748Y-75099243D01*
X97351748Y-75099243D02*
X97297873Y-75206993D01*
X97297873Y-75206993D02*
X97297873Y-75314742D01*
X97297873Y-75314742D02*
X97324810Y-75395555D01*
X97324810Y-75395555D02*
X97405623Y-75530242D01*
X97405623Y-75530242D02*
X97486435Y-75611054D01*
X97486435Y-75611054D02*
X97621122Y-75691866D01*
X97621122Y-75691866D02*
X97701934Y-75718803D01*
X97701934Y-75718803D02*
X97809684Y-75718803D01*
X97809684Y-75718803D02*
X97917433Y-75664929D01*
X97917433Y-75664929D02*
X97971308Y-75611054D01*
X97971308Y-75611054D02*
X98025183Y-75503304D01*
X98025183Y-75503304D02*
X98025183Y-75449429D01*
X98025183Y-75449429D02*
X97836621Y-75260868D01*
X97836621Y-75260868D02*
X97728871Y-75368617D01*
X98321494Y-75260868D02*
X97755809Y-74695182D01*
X97755809Y-74695182D02*
X97971308Y-74479683D01*
X97971308Y-74479683D02*
X98052120Y-74452746D01*
X98052120Y-74452746D02*
X98105995Y-74452746D01*
X98105995Y-74452746D02*
X98186807Y-74479683D01*
X98186807Y-74479683D02*
X98267619Y-74560495D01*
X98267619Y-74560495D02*
X98294557Y-74641307D01*
X98294557Y-74641307D02*
X98294557Y-74695182D01*
X98294557Y-74695182D02*
X98267619Y-74775994D01*
X98267619Y-74775994D02*
X98052120Y-74991494D01*
X98429244Y-74021747D02*
X98483119Y-73967872D01*
X98483119Y-73967872D02*
X98563931Y-73940935D01*
X98563931Y-73940935D02*
X98617806Y-73940935D01*
X98617806Y-73940935D02*
X98698618Y-73967872D01*
X98698618Y-73967872D02*
X98833305Y-74048685D01*
X98833305Y-74048685D02*
X98967992Y-74183372D01*
X98967992Y-74183372D02*
X99048804Y-74318059D01*
X99048804Y-74318059D02*
X99075741Y-74398871D01*
X99075741Y-74398871D02*
X99075741Y-74452746D01*
X99075741Y-74452746D02*
X99048804Y-74533558D01*
X99048804Y-74533558D02*
X98994929Y-74587433D01*
X98994929Y-74587433D02*
X98914117Y-74614370D01*
X98914117Y-74614370D02*
X98860242Y-74614370D01*
X98860242Y-74614370D02*
X98779430Y-74587433D01*
X98779430Y-74587433D02*
X98644743Y-74506620D01*
X98644743Y-74506620D02*
X98510056Y-74371933D01*
X98510056Y-74371933D02*
X98429244Y-74237246D01*
X98429244Y-74237246D02*
X98402306Y-74156434D01*
X98402306Y-74156434D02*
X98402306Y-74102559D01*
X98402306Y-74102559D02*
X98429244Y-74021747D01*
X103490475Y-125524200D02*
X103604761Y-125562295D01*
X103604761Y-125562295D02*
X103795237Y-125562295D01*
X103795237Y-125562295D02*
X103871428Y-125524200D01*
X103871428Y-125524200D02*
X103909523Y-125486104D01*
X103909523Y-125486104D02*
X103947618Y-125409914D01*
X103947618Y-125409914D02*
X103947618Y-125333723D01*
X103947618Y-125333723D02*
X103909523Y-125257533D01*
X103909523Y-125257533D02*
X103871428Y-125219438D01*
X103871428Y-125219438D02*
X103795237Y-125181342D01*
X103795237Y-125181342D02*
X103642856Y-125143247D01*
X103642856Y-125143247D02*
X103566666Y-125105152D01*
X103566666Y-125105152D02*
X103528571Y-125067057D01*
X103528571Y-125067057D02*
X103490475Y-124990866D01*
X103490475Y-124990866D02*
X103490475Y-124914676D01*
X103490475Y-124914676D02*
X103528571Y-124838485D01*
X103528571Y-124838485D02*
X103566666Y-124800390D01*
X103566666Y-124800390D02*
X103642856Y-124762295D01*
X103642856Y-124762295D02*
X103833333Y-124762295D01*
X103833333Y-124762295D02*
X103947618Y-124800390D01*
X104214285Y-124762295D02*
X104404761Y-125562295D01*
X104404761Y-125562295D02*
X104557142Y-124990866D01*
X104557142Y-124990866D02*
X104709523Y-125562295D01*
X104709523Y-125562295D02*
X104900000Y-124762295D01*
X105661905Y-125486104D02*
X105623809Y-125524200D01*
X105623809Y-125524200D02*
X105509524Y-125562295D01*
X105509524Y-125562295D02*
X105433333Y-125562295D01*
X105433333Y-125562295D02*
X105319047Y-125524200D01*
X105319047Y-125524200D02*
X105242857Y-125448009D01*
X105242857Y-125448009D02*
X105204762Y-125371819D01*
X105204762Y-125371819D02*
X105166666Y-125219438D01*
X105166666Y-125219438D02*
X105166666Y-125105152D01*
X105166666Y-125105152D02*
X105204762Y-124952771D01*
X105204762Y-124952771D02*
X105242857Y-124876580D01*
X105242857Y-124876580D02*
X105319047Y-124800390D01*
X105319047Y-124800390D02*
X105433333Y-124762295D01*
X105433333Y-124762295D02*
X105509524Y-124762295D01*
X105509524Y-124762295D02*
X105623809Y-124800390D01*
X105623809Y-124800390D02*
X105661905Y-124838485D01*
X106385714Y-125562295D02*
X106004762Y-125562295D01*
X106004762Y-125562295D02*
X106004762Y-124762295D01*
X106652381Y-125562295D02*
X106652381Y-124762295D01*
X107109524Y-125562295D02*
X106766666Y-125105152D01*
X107109524Y-124762295D02*
X106652381Y-125219438D01*
X96843998Y-113360868D02*
X96763185Y-113387805D01*
X96763185Y-113387805D02*
X96682373Y-113468618D01*
X96682373Y-113468618D02*
X96628498Y-113576367D01*
X96628498Y-113576367D02*
X96628498Y-113684117D01*
X96628498Y-113684117D02*
X96655436Y-113764929D01*
X96655436Y-113764929D02*
X96736248Y-113899616D01*
X96736248Y-113899616D02*
X96817060Y-113980428D01*
X96817060Y-113980428D02*
X96951747Y-114061241D01*
X96951747Y-114061241D02*
X97032560Y-114088178D01*
X97032560Y-114088178D02*
X97140309Y-114088178D01*
X97140309Y-114088178D02*
X97248059Y-114034303D01*
X97248059Y-114034303D02*
X97301934Y-113980428D01*
X97301934Y-113980428D02*
X97355808Y-113872679D01*
X97355808Y-113872679D02*
X97355808Y-113818804D01*
X97355808Y-113818804D02*
X97167247Y-113630242D01*
X97167247Y-113630242D02*
X97059497Y-113737992D01*
X97652120Y-113630242D02*
X97086434Y-113064557D01*
X97086434Y-113064557D02*
X97301934Y-112849057D01*
X97301934Y-112849057D02*
X97382746Y-112822120D01*
X97382746Y-112822120D02*
X97436621Y-112822120D01*
X97436621Y-112822120D02*
X97517433Y-112849057D01*
X97517433Y-112849057D02*
X97598245Y-112929870D01*
X97598245Y-112929870D02*
X97625182Y-113010682D01*
X97625182Y-113010682D02*
X97625182Y-113064557D01*
X97625182Y-113064557D02*
X97598245Y-113145369D01*
X97598245Y-113145369D02*
X97382746Y-113360868D01*
X98514117Y-112768245D02*
X98190868Y-113091494D01*
X98352492Y-112929870D02*
X97786807Y-112364184D01*
X97786807Y-112364184D02*
X97813744Y-112498871D01*
X97813744Y-112498871D02*
X97813744Y-112606621D01*
X97813744Y-112606621D02*
X97786807Y-112687433D01*
X98217805Y-112040935D02*
X98217805Y-111987060D01*
X98217805Y-111987060D02*
X98244743Y-111906248D01*
X98244743Y-111906248D02*
X98379430Y-111771561D01*
X98379430Y-111771561D02*
X98460242Y-111744624D01*
X98460242Y-111744624D02*
X98514117Y-111744624D01*
X98514117Y-111744624D02*
X98594929Y-111771561D01*
X98594929Y-111771561D02*
X98648804Y-111825436D01*
X98648804Y-111825436D02*
X98702679Y-111933186D01*
X98702679Y-111933186D02*
X98702679Y-112579683D01*
X98702679Y-112579683D02*
X99052865Y-112229497D01*
X96989998Y-123520868D02*
X96909185Y-123547805D01*
X96909185Y-123547805D02*
X96828373Y-123628618D01*
X96828373Y-123628618D02*
X96774498Y-123736367D01*
X96774498Y-123736367D02*
X96774498Y-123844117D01*
X96774498Y-123844117D02*
X96801436Y-123924929D01*
X96801436Y-123924929D02*
X96882248Y-124059616D01*
X96882248Y-124059616D02*
X96963060Y-124140428D01*
X96963060Y-124140428D02*
X97097747Y-124221241D01*
X97097747Y-124221241D02*
X97178560Y-124248178D01*
X97178560Y-124248178D02*
X97286309Y-124248178D01*
X97286309Y-124248178D02*
X97394059Y-124194303D01*
X97394059Y-124194303D02*
X97447934Y-124140428D01*
X97447934Y-124140428D02*
X97501808Y-124032679D01*
X97501808Y-124032679D02*
X97501808Y-123978804D01*
X97501808Y-123978804D02*
X97313247Y-123790242D01*
X97313247Y-123790242D02*
X97205497Y-123897992D01*
X97798120Y-123790242D02*
X97232434Y-123224557D01*
X97232434Y-123224557D02*
X97447934Y-123009057D01*
X97447934Y-123009057D02*
X97528746Y-122982120D01*
X97528746Y-122982120D02*
X97582621Y-122982120D01*
X97582621Y-122982120D02*
X97663433Y-123009057D01*
X97663433Y-123009057D02*
X97744245Y-123089870D01*
X97744245Y-123089870D02*
X97771182Y-123170682D01*
X97771182Y-123170682D02*
X97771182Y-123224557D01*
X97771182Y-123224557D02*
X97744245Y-123305369D01*
X97744245Y-123305369D02*
X97528746Y-123520868D01*
X98660117Y-122928245D02*
X98336868Y-123251494D01*
X98498492Y-123089870D02*
X97932807Y-122524184D01*
X97932807Y-122524184D02*
X97959744Y-122658871D01*
X97959744Y-122658871D02*
X97959744Y-122766621D01*
X97959744Y-122766621D02*
X97932807Y-122847433D01*
X98606242Y-121850749D02*
X98336868Y-122120123D01*
X98336868Y-122120123D02*
X98579305Y-122416434D01*
X98579305Y-122416434D02*
X98579305Y-122362560D01*
X98579305Y-122362560D02*
X98606242Y-122281747D01*
X98606242Y-122281747D02*
X98740929Y-122147060D01*
X98740929Y-122147060D02*
X98821741Y-122120123D01*
X98821741Y-122120123D02*
X98875616Y-122120123D01*
X98875616Y-122120123D02*
X98956428Y-122147060D01*
X98956428Y-122147060D02*
X99091115Y-122281747D01*
X99091115Y-122281747D02*
X99118053Y-122362560D01*
X99118053Y-122362560D02*
X99118053Y-122416434D01*
X99118053Y-122416434D02*
X99091115Y-122497247D01*
X99091115Y-122497247D02*
X98956428Y-122631934D01*
X98956428Y-122631934D02*
X98875616Y-122658871D01*
X98875616Y-122658871D02*
X98821741Y-122658871D01*
X122920749Y-78070242D02*
X123674996Y-78447366D01*
X123674996Y-78447366D02*
X123297873Y-77693118D01*
X123998245Y-78070242D02*
X124105995Y-78016367D01*
X124105995Y-78016367D02*
X124240682Y-77881680D01*
X124240682Y-77881680D02*
X124267619Y-77800868D01*
X124267619Y-77800868D02*
X124267619Y-77746993D01*
X124267619Y-77746993D02*
X124240682Y-77666181D01*
X124240682Y-77666181D02*
X124186807Y-77612306D01*
X124186807Y-77612306D02*
X124105995Y-77585369D01*
X124105995Y-77585369D02*
X124052120Y-77585369D01*
X124052120Y-77585369D02*
X123971308Y-77612306D01*
X123971308Y-77612306D02*
X123836621Y-77693118D01*
X123836621Y-77693118D02*
X123755808Y-77720056D01*
X123755808Y-77720056D02*
X123701934Y-77720056D01*
X123701934Y-77720056D02*
X123621121Y-77693118D01*
X123621121Y-77693118D02*
X123567247Y-77639244D01*
X123567247Y-77639244D02*
X123540309Y-77558431D01*
X123540309Y-77558431D02*
X123540309Y-77504557D01*
X123540309Y-77504557D02*
X123567247Y-77423744D01*
X123567247Y-77423744D02*
X123701934Y-77289057D01*
X123701934Y-77289057D02*
X123809683Y-77235183D01*
X124429244Y-77154370D02*
X124698618Y-77423744D01*
X123944370Y-77046621D02*
X124429244Y-77154370D01*
X124429244Y-77154370D02*
X124321494Y-76669497D01*
X125021866Y-77046621D02*
X125129616Y-76992746D01*
X125129616Y-76992746D02*
X125264303Y-76858059D01*
X125264303Y-76858059D02*
X125291240Y-76777247D01*
X125291240Y-76777247D02*
X125291240Y-76723372D01*
X125291240Y-76723372D02*
X125264303Y-76642560D01*
X125264303Y-76642560D02*
X125210428Y-76588685D01*
X125210428Y-76588685D02*
X125129616Y-76561748D01*
X125129616Y-76561748D02*
X125075741Y-76561748D01*
X125075741Y-76561748D02*
X124994929Y-76588685D01*
X124994929Y-76588685D02*
X124860242Y-76669497D01*
X124860242Y-76669497D02*
X124779430Y-76696435D01*
X124779430Y-76696435D02*
X124725555Y-76696435D01*
X124725555Y-76696435D02*
X124644743Y-76669497D01*
X124644743Y-76669497D02*
X124590868Y-76615622D01*
X124590868Y-76615622D02*
X124563930Y-76534810D01*
X124563930Y-76534810D02*
X124563930Y-76480935D01*
X124563930Y-76480935D02*
X124590868Y-76400123D01*
X124590868Y-76400123D02*
X124725555Y-76265436D01*
X124725555Y-76265436D02*
X124833304Y-76211561D01*
X97486435Y-118198431D02*
X97405623Y-118225368D01*
X97405623Y-118225368D02*
X97324811Y-118306180D01*
X97324811Y-118306180D02*
X97270936Y-118413930D01*
X97270936Y-118413930D02*
X97270936Y-118521680D01*
X97270936Y-118521680D02*
X97297873Y-118602492D01*
X97297873Y-118602492D02*
X97378685Y-118737179D01*
X97378685Y-118737179D02*
X97459498Y-118817991D01*
X97459498Y-118817991D02*
X97594185Y-118898803D01*
X97594185Y-118898803D02*
X97674997Y-118925741D01*
X97674997Y-118925741D02*
X97782746Y-118925741D01*
X97782746Y-118925741D02*
X97890496Y-118871866D01*
X97890496Y-118871866D02*
X97944371Y-118817991D01*
X97944371Y-118817991D02*
X97998246Y-118710241D01*
X97998246Y-118710241D02*
X97998246Y-118656367D01*
X97998246Y-118656367D02*
X97809684Y-118467805D01*
X97809684Y-118467805D02*
X97701934Y-118575554D01*
X98294557Y-118467805D02*
X97728872Y-117902119D01*
X97728872Y-117902119D02*
X98617806Y-118144556D01*
X98617806Y-118144556D02*
X98052120Y-117578871D01*
X98887180Y-117875182D02*
X98321494Y-117309497D01*
X98321494Y-117309497D02*
X98456181Y-117174810D01*
X98456181Y-117174810D02*
X98563931Y-117120935D01*
X98563931Y-117120935D02*
X98671680Y-117120935D01*
X98671680Y-117120935D02*
X98752493Y-117147872D01*
X98752493Y-117147872D02*
X98887180Y-117228685D01*
X98887180Y-117228685D02*
X98967992Y-117309497D01*
X98967992Y-117309497D02*
X99048804Y-117444184D01*
X99048804Y-117444184D02*
X99075741Y-117524996D01*
X99075741Y-117524996D02*
X99075741Y-117632746D01*
X99075741Y-117632746D02*
X99021867Y-117740495D01*
X99021867Y-117740495D02*
X98887180Y-117875182D01*
X97486435Y-105498431D02*
X97405623Y-105525368D01*
X97405623Y-105525368D02*
X97324811Y-105606180D01*
X97324811Y-105606180D02*
X97270936Y-105713930D01*
X97270936Y-105713930D02*
X97270936Y-105821680D01*
X97270936Y-105821680D02*
X97297873Y-105902492D01*
X97297873Y-105902492D02*
X97378685Y-106037179D01*
X97378685Y-106037179D02*
X97459498Y-106117991D01*
X97459498Y-106117991D02*
X97594185Y-106198803D01*
X97594185Y-106198803D02*
X97674997Y-106225741D01*
X97674997Y-106225741D02*
X97782746Y-106225741D01*
X97782746Y-106225741D02*
X97890496Y-106171866D01*
X97890496Y-106171866D02*
X97944371Y-106117991D01*
X97944371Y-106117991D02*
X97998246Y-106010241D01*
X97998246Y-106010241D02*
X97998246Y-105956367D01*
X97998246Y-105956367D02*
X97809684Y-105767805D01*
X97809684Y-105767805D02*
X97701934Y-105875554D01*
X98294557Y-105767805D02*
X97728872Y-105202119D01*
X97728872Y-105202119D02*
X98617806Y-105444556D01*
X98617806Y-105444556D02*
X98052120Y-104878871D01*
X98887180Y-105175182D02*
X98321494Y-104609497D01*
X98321494Y-104609497D02*
X98456181Y-104474810D01*
X98456181Y-104474810D02*
X98563931Y-104420935D01*
X98563931Y-104420935D02*
X98671680Y-104420935D01*
X98671680Y-104420935D02*
X98752493Y-104447872D01*
X98752493Y-104447872D02*
X98887180Y-104528685D01*
X98887180Y-104528685D02*
X98967992Y-104609497D01*
X98967992Y-104609497D02*
X99048804Y-104744184D01*
X99048804Y-104744184D02*
X99075741Y-104824996D01*
X99075741Y-104824996D02*
X99075741Y-104932746D01*
X99075741Y-104932746D02*
X99021867Y-105040495D01*
X99021867Y-105040495D02*
X98887180Y-105175182D01*
X123086435Y-118198431D02*
X123005623Y-118225368D01*
X123005623Y-118225368D02*
X122924811Y-118306180D01*
X122924811Y-118306180D02*
X122870936Y-118413930D01*
X122870936Y-118413930D02*
X122870936Y-118521680D01*
X122870936Y-118521680D02*
X122897873Y-118602492D01*
X122897873Y-118602492D02*
X122978685Y-118737179D01*
X122978685Y-118737179D02*
X123059498Y-118817991D01*
X123059498Y-118817991D02*
X123194185Y-118898803D01*
X123194185Y-118898803D02*
X123274997Y-118925741D01*
X123274997Y-118925741D02*
X123382746Y-118925741D01*
X123382746Y-118925741D02*
X123490496Y-118871866D01*
X123490496Y-118871866D02*
X123544371Y-118817991D01*
X123544371Y-118817991D02*
X123598246Y-118710241D01*
X123598246Y-118710241D02*
X123598246Y-118656367D01*
X123598246Y-118656367D02*
X123409684Y-118467805D01*
X123409684Y-118467805D02*
X123301934Y-118575554D01*
X123894557Y-118467805D02*
X123328872Y-117902119D01*
X123328872Y-117902119D02*
X124217806Y-118144556D01*
X124217806Y-118144556D02*
X123652120Y-117578871D01*
X124487180Y-117875182D02*
X123921494Y-117309497D01*
X123921494Y-117309497D02*
X124056181Y-117174810D01*
X124056181Y-117174810D02*
X124163931Y-117120935D01*
X124163931Y-117120935D02*
X124271680Y-117120935D01*
X124271680Y-117120935D02*
X124352493Y-117147872D01*
X124352493Y-117147872D02*
X124487180Y-117228685D01*
X124487180Y-117228685D02*
X124567992Y-117309497D01*
X124567992Y-117309497D02*
X124648804Y-117444184D01*
X124648804Y-117444184D02*
X124675741Y-117524996D01*
X124675741Y-117524996D02*
X124675741Y-117632746D01*
X124675741Y-117632746D02*
X124621867Y-117740495D01*
X124621867Y-117740495D02*
X124487180Y-117875182D01*
X117056666Y-80624819D02*
X117056666Y-81339104D01*
X117056666Y-81339104D02*
X117009047Y-81481961D01*
X117009047Y-81481961D02*
X116913809Y-81577200D01*
X116913809Y-81577200D02*
X116770952Y-81624819D01*
X116770952Y-81624819D02*
X116675714Y-81624819D01*
X118056666Y-81624819D02*
X117485238Y-81624819D01*
X117770952Y-81624819D02*
X117770952Y-80624819D01*
X117770952Y-80624819D02*
X117675714Y-80767676D01*
X117675714Y-80767676D02*
X117580476Y-80862914D01*
X117580476Y-80862914D02*
X117485238Y-80910533D01*
X143308333Y-108824819D02*
X142975000Y-108348628D01*
X142736905Y-108824819D02*
X142736905Y-107824819D01*
X142736905Y-107824819D02*
X143117857Y-107824819D01*
X143117857Y-107824819D02*
X143213095Y-107872438D01*
X143213095Y-107872438D02*
X143260714Y-107920057D01*
X143260714Y-107920057D02*
X143308333Y-108015295D01*
X143308333Y-108015295D02*
X143308333Y-108158152D01*
X143308333Y-108158152D02*
X143260714Y-108253390D01*
X143260714Y-108253390D02*
X143213095Y-108301009D01*
X143213095Y-108301009D02*
X143117857Y-108348628D01*
X143117857Y-108348628D02*
X142736905Y-108348628D01*
X143641667Y-107824819D02*
X144260714Y-107824819D01*
X144260714Y-107824819D02*
X143927381Y-108205771D01*
X143927381Y-108205771D02*
X144070238Y-108205771D01*
X144070238Y-108205771D02*
X144165476Y-108253390D01*
X144165476Y-108253390D02*
X144213095Y-108301009D01*
X144213095Y-108301009D02*
X144260714Y-108396247D01*
X144260714Y-108396247D02*
X144260714Y-108634342D01*
X144260714Y-108634342D02*
X144213095Y-108729580D01*
X144213095Y-108729580D02*
X144165476Y-108777200D01*
X144165476Y-108777200D02*
X144070238Y-108824819D01*
X144070238Y-108824819D02*
X143784524Y-108824819D01*
X143784524Y-108824819D02*
X143689286Y-108777200D01*
X143689286Y-108777200D02*
X143641667Y-108729580D01*
D11*
%TO.C,D1*%
X131830000Y-120236000D02*
X131830000Y-120080000D01*
X131830000Y-117920000D02*
X131830000Y-117764000D01*
X131829999Y-120235515D02*
G75*
G02*
X128597666Y-120078608I-1559999J1235515D01*
G01*
X131310960Y-120079999D02*
G75*
G02*
X129228871Y-120079836I-1040960J1079999D01*
G01*
X129228871Y-117920164D02*
G75*
G02*
X131310960Y-117920001I1041129J-1079836D01*
G01*
X128597666Y-117921392D02*
G75*
G02*
X131829999Y-117764485I1672334J-1078608D01*
G01*
%TO.C,Q1*%
X128245552Y-101505501D02*
X129157719Y-102417669D01*
X129235501Y-100515552D02*
X128245552Y-101505501D01*
X130147669Y-101427719D02*
X129235501Y-100515552D01*
X130147669Y-101427719D02*
G75*
G02*
X129157850Y-102417456I1582331J-2572281D01*
G01*
%TO.C,R1*%
X132915000Y-93000000D02*
X129165000Y-93000000D01*
X137655000Y-93000000D02*
G75*
G02*
X132915000Y-93000000I-2370000J0D01*
G01*
X132915000Y-93000000D02*
G75*
G02*
X137655000Y-93000000I2370000J0D01*
G01*
%TO.C,R2*%
X144915000Y-123000000D02*
X141165000Y-123000000D01*
X149655000Y-123000000D02*
G75*
G02*
X144915000Y-123000000I-2370000J0D01*
G01*
X144915000Y-123000000D02*
G75*
G02*
X149655000Y-123000000I2370000J0D01*
G01*
%TO.C,J2*%
X144360000Y-117610000D02*
X144360000Y-116360000D01*
X144060000Y-117310000D02*
X144060000Y-112590000D01*
X144060000Y-116000000D02*
X143450000Y-116000000D01*
X144060000Y-114700000D02*
X143450000Y-114700000D01*
X144060000Y-112590000D02*
X137940000Y-112590000D01*
X143450000Y-116700000D02*
X143450000Y-113200000D01*
X143450000Y-113200000D02*
X138550000Y-113200000D01*
X143110000Y-117610000D02*
X144360000Y-117610000D01*
X142600000Y-117510000D02*
X142600000Y-117310000D01*
X142300000Y-117510000D02*
X142600000Y-117510000D01*
X142300000Y-117410000D02*
X142600000Y-117410000D01*
X142300000Y-117310000D02*
X142300000Y-117510000D01*
X141500000Y-117310000D02*
X141500000Y-116700000D01*
X141500000Y-116700000D02*
X143450000Y-116700000D01*
X141100000Y-113700000D02*
X140900000Y-113700000D01*
X141100000Y-113200000D02*
X141100000Y-113700000D01*
X141000000Y-113200000D02*
X141000000Y-113700000D01*
X140900000Y-113700000D02*
X140900000Y-113200000D01*
X140500000Y-116700000D02*
X140500000Y-117310000D01*
X138550000Y-116700000D02*
X140500000Y-116700000D01*
X138550000Y-113200000D02*
X138550000Y-116700000D01*
X137940000Y-117310000D02*
X144060000Y-117310000D01*
X137940000Y-116000000D02*
X138550000Y-116000000D01*
X137940000Y-114700000D02*
X138550000Y-114700000D01*
X137940000Y-112590000D02*
X137940000Y-117310000D01*
%TO.C,REF\u002A\u002A*%
X100500000Y-73500000D02*
X100500000Y-73800000D01*
X100500000Y-73500000D02*
X121500000Y-73500000D01*
X100500000Y-75900000D02*
X100500000Y-76300000D01*
X100500000Y-76167000D02*
X103507000Y-76167000D01*
X100500000Y-78500000D02*
X100500000Y-78900000D01*
X100500000Y-81000000D02*
X100500000Y-81400000D01*
X100500000Y-83600000D02*
X100500000Y-84000000D01*
X100500000Y-86100000D02*
X100500000Y-86500000D01*
X100500000Y-88600000D02*
X100500000Y-89000000D01*
X100500000Y-91200000D02*
X100500000Y-91600000D01*
X100500000Y-93700000D02*
X100500000Y-94100000D01*
X100500000Y-96300000D02*
X100500000Y-96700000D01*
X100500000Y-98800000D02*
X100500000Y-99200000D01*
X100500000Y-101300000D02*
X100500000Y-101700000D01*
X100500000Y-103900000D02*
X100500000Y-104300000D01*
X100500000Y-106400000D02*
X100500000Y-106800000D01*
X100500000Y-109000000D02*
X100500000Y-109400000D01*
X100500000Y-111500000D02*
X100500000Y-111900000D01*
X100500000Y-114100000D02*
X100500000Y-114500000D01*
X100500000Y-116600000D02*
X100500000Y-117000000D01*
X100500000Y-119100000D02*
X100500000Y-119500000D01*
X100500000Y-121700000D02*
X100500000Y-122100000D01*
X103507000Y-76167000D02*
X103507000Y-73500000D01*
X107300000Y-124500000D02*
X100500000Y-124500000D01*
X109500000Y-124500000D02*
X109900000Y-124500000D01*
X112100000Y-124500000D02*
X112500000Y-124500000D01*
X121500000Y-73500000D02*
X121500000Y-73800000D01*
X121500000Y-75900000D02*
X121500000Y-76300000D01*
X121500000Y-78500000D02*
X121500000Y-78900000D01*
X121500000Y-81000000D02*
X121500000Y-81400000D01*
X121500000Y-83600000D02*
X121500000Y-84000000D01*
X121500000Y-86100000D02*
X121500000Y-86500000D01*
X121500000Y-88600000D02*
X121500000Y-89000000D01*
X121500000Y-91200000D02*
X121500000Y-91600000D01*
X121500000Y-93700000D02*
X121500000Y-94100000D01*
X121500000Y-96300000D02*
X121500000Y-96700000D01*
X121500000Y-98800000D02*
X121500000Y-99200000D01*
X121500000Y-101300000D02*
X121500000Y-101700000D01*
X121500000Y-103900000D02*
X121500000Y-104300000D01*
X121500000Y-106400000D02*
X121500000Y-106800000D01*
X121500000Y-109000000D02*
X121500000Y-109400000D01*
X121500000Y-111500000D02*
X121500000Y-111900000D01*
X121500000Y-114100000D02*
X121500000Y-114500000D01*
X121500000Y-116600000D02*
X121500000Y-117000000D01*
X121500000Y-119100000D02*
X121500000Y-119500000D01*
X121500000Y-121700000D02*
X121500000Y-122100000D01*
X121500000Y-124500000D02*
X114700000Y-124500000D01*
%TO.C,J1*%
X148590000Y-98330000D02*
X148590000Y-93500000D01*
X148590000Y-91590000D02*
X148590000Y-93500000D01*
X147320000Y-91590000D02*
X147320000Y-90200000D01*
X144910000Y-98330000D02*
X148590000Y-98330000D01*
X144910000Y-98070000D02*
X144910000Y-98330000D01*
X144140000Y-98330000D02*
X144140000Y-98070000D01*
X144140000Y-98330000D02*
X140460000Y-98330000D01*
X144140000Y-98070000D02*
X144910000Y-98070000D01*
X141730000Y-91590000D02*
X141730000Y-90200000D01*
X141730000Y-91340000D02*
X147320000Y-91340000D01*
X141730000Y-90450000D02*
X147320000Y-90450000D01*
X141730000Y-90200000D02*
X147320000Y-90200000D01*
X141420000Y-91300000D02*
X140120000Y-91300000D01*
X140460000Y-93500000D02*
X140460000Y-98330000D01*
X140460000Y-91590000D02*
X148590000Y-91590000D01*
X140460000Y-91590000D02*
X140460000Y-93500000D01*
X140120000Y-91300000D02*
X140120000Y-93500000D01*
%TO.C,R3*%
X144915000Y-105000000D02*
X141165000Y-105000000D01*
X149655000Y-105000000D02*
G75*
G02*
X144915000Y-105000000I-2370000J0D01*
G01*
X144915000Y-105000000D02*
G75*
G02*
X149655000Y-105000000I2370000J0D01*
G01*
%TD*%
M02*
