%TF.GenerationSoftware,KiCad,Pcbnew,8.0.1*%
%TF.CreationDate,2024-03-28T11:07:15-03:00*%
%TF.ProjectId,agora vai,61676f72-6120-4766-9169-2e6b69636164,rev?*%
%TF.SameCoordinates,Original*%
%TF.FileFunction,Copper,L1,Top*%
%TF.FilePolarity,Positive*%
%FSLAX46Y46*%
G04 Gerber Fmt 4.6, Leading zero omitted, Abs format (unit mm)*
G04 Created by KiCad (PCBNEW 8.0.1) date 2024-03-28 11:07:15*
%MOMM*%
%LPD*%
G01*
G04 APERTURE LIST*
G04 Aperture macros list*
%AMRoundRect*
0 Rectangle with rounded corners*
0 $1 Rounding radius*
0 $2 $3 $4 $5 $6 $7 $8 $9 X,Y pos of 4 corners*
0 Add a 4 corners polygon primitive as box body*
4,1,4,$2,$3,$4,$5,$6,$7,$8,$9,$2,$3,0*
0 Add four circle primitives for the rounded corners*
1,1,$1+$1,$2,$3*
1,1,$1+$1,$4,$5*
1,1,$1+$1,$6,$7*
1,1,$1+$1,$8,$9*
0 Add four rect primitives between the rounded corners*
20,1,$1+$1,$2,$3,$4,$5,0*
20,1,$1+$1,$4,$5,$6,$7,0*
20,1,$1+$1,$6,$7,$8,$9,0*
20,1,$1+$1,$8,$9,$2,$3,0*%
G04 Aperture macros list end*
%TA.AperFunction,ComponentPad*%
%ADD10R,1.800000X1.800000*%
%TD*%
%TA.AperFunction,ComponentPad*%
%ADD11C,1.800000*%
%TD*%
%TA.AperFunction,ComponentPad*%
%ADD12O,1.600000X1.200000*%
%TD*%
%TA.AperFunction,ComponentPad*%
%ADD13O,1.200000X1.200000*%
%TD*%
%TA.AperFunction,ComponentPad*%
%ADD14C,2.400000*%
%TD*%
%TA.AperFunction,ComponentPad*%
%ADD15O,2.400000X2.400000*%
%TD*%
%TA.AperFunction,ComponentPad*%
%ADD16O,1.200000X1.750000*%
%TD*%
%TA.AperFunction,ComponentPad*%
%ADD17RoundRect,0.250000X0.350000X0.625000X-0.350000X0.625000X-0.350000X-0.625000X0.350000X-0.625000X0*%
%TD*%
%TA.AperFunction,ComponentPad*%
%ADD18O,1.700000X1.700000*%
%TD*%
%TA.AperFunction,SMDPad,CuDef*%
%ADD19R,3.500000X1.700000*%
%TD*%
%TA.AperFunction,ComponentPad*%
%ADD20R,1.700000X1.700000*%
%TD*%
%TA.AperFunction,SMDPad,CuDef*%
%ADD21R,1.700000X3.500000*%
%TD*%
%TA.AperFunction,ComponentPad*%
%ADD22C,3.000000*%
%TD*%
%TA.AperFunction,ComponentPad*%
%ADD23R,3.000000X3.000000*%
%TD*%
%TA.AperFunction,Conductor*%
%ADD24C,0.500000*%
%TD*%
%TA.AperFunction,Conductor*%
%ADD25C,1.000000*%
%TD*%
%TA.AperFunction,Conductor*%
%ADD26C,0.200000*%
%TD*%
G04 APERTURE END LIST*
D10*
%TO.P,D1,1,K*%
%TO.N,Net-(D1-K)*%
X131540000Y-119000000D03*
D11*
%TO.P,D1,2,A*%
%TO.N,Net-(D1-A)*%
X129000000Y-119000000D03*
%TD*%
D12*
%TO.P,Q1,1,E*%
%TO.N,Net-(Q1-B)*%
X130460000Y-104000000D03*
D13*
%TO.P,Q1,2,B*%
X131730000Y-105270000D03*
%TO.P,Q1,3,C*%
%TO.N,Net-(Q1-C)*%
X133000000Y-104000000D03*
%TD*%
D14*
%TO.P,R1,1*%
%TO.N,Net-(Q1-B)*%
X135285000Y-93000000D03*
D15*
%TO.P,R1,2*%
%TO.N,Net-(U1-GPIO22)*%
X127665000Y-93000000D03*
%TD*%
D14*
%TO.P,R2,1*%
%TO.N,GND*%
X147285000Y-123000000D03*
D15*
%TO.P,R2,2*%
%TO.N,Net-(D1-K)*%
X139665000Y-123000000D03*
%TD*%
D16*
%TO.P,J2,2,Pin_2*%
%TO.N,Net-(Q1-B)*%
X140000000Y-115500000D03*
D17*
%TO.P,J2,1,Pin_1*%
%TO.N,GND*%
X142000000Y-115500000D03*
%TD*%
D18*
%TO.P,REF\u002A\u002A,1*%
%TO.N,N/C*%
X102110000Y-74870000D03*
D19*
X101210000Y-74870000D03*
D18*
%TO.P,REF\u002A\u002A,2*%
X102110000Y-77410000D03*
D19*
X101210000Y-77410000D03*
D20*
%TO.P,REF\u002A\u002A,3*%
X102110000Y-79950000D03*
D19*
X101210000Y-79950000D03*
D18*
%TO.P,REF\u002A\u002A,4*%
X102110000Y-82490000D03*
D19*
X101210000Y-82490000D03*
D18*
%TO.P,REF\u002A\u002A,5*%
X102110000Y-85030000D03*
D19*
X101210000Y-85030000D03*
D18*
%TO.P,REF\u002A\u002A,6*%
X102110000Y-87570000D03*
D19*
X101210000Y-87570000D03*
D18*
%TO.P,REF\u002A\u002A,7*%
X102110000Y-90110000D03*
D19*
X101210000Y-90110000D03*
D20*
%TO.P,REF\u002A\u002A,8*%
X102110000Y-92650000D03*
D19*
X101210000Y-92650000D03*
D18*
%TO.P,REF\u002A\u002A,9*%
X102110000Y-95190000D03*
D19*
X101210000Y-95190000D03*
D18*
%TO.P,REF\u002A\u002A,10*%
X102110000Y-97730000D03*
D19*
X101210000Y-97730000D03*
D18*
%TO.P,REF\u002A\u002A,11*%
X102110000Y-100270000D03*
D19*
X101210000Y-100270000D03*
D18*
%TO.P,REF\u002A\u002A,12*%
X102110000Y-102810000D03*
D19*
X101210000Y-102810000D03*
D20*
%TO.P,REF\u002A\u002A,13*%
X102110000Y-105350000D03*
D19*
X101210000Y-105350000D03*
D18*
%TO.P,REF\u002A\u002A,14*%
X102110000Y-107890000D03*
D19*
X101210000Y-107890000D03*
D18*
%TO.P,REF\u002A\u002A,15*%
X102110000Y-110430000D03*
D19*
X101210000Y-110430000D03*
D18*
%TO.P,REF\u002A\u002A,16*%
X102110000Y-112970000D03*
D19*
X101210000Y-112970000D03*
D18*
%TO.P,REF\u002A\u002A,17*%
X102110000Y-115510000D03*
D19*
X101210000Y-115510000D03*
D20*
%TO.P,REF\u002A\u002A,18*%
X102110000Y-118050000D03*
D19*
X101210000Y-118050000D03*
D18*
%TO.P,REF\u002A\u002A,19*%
X102110000Y-120590000D03*
D19*
X101210000Y-120590000D03*
D18*
%TO.P,REF\u002A\u002A,20*%
X102110000Y-123130000D03*
D19*
X101210000Y-123130000D03*
D18*
%TO.P,REF\u002A\u002A,21*%
X119890000Y-123130000D03*
D19*
X120790000Y-123130000D03*
D18*
%TO.P,REF\u002A\u002A,22*%
X119890000Y-120590000D03*
D19*
X120790000Y-120590000D03*
D20*
%TO.P,REF\u002A\u002A,23*%
X119890000Y-118050000D03*
D19*
X120790000Y-118050000D03*
D18*
%TO.P,REF\u002A\u002A,24*%
%TO.N,Net-(D1-A)*%
X119890000Y-115510000D03*
D19*
X120790000Y-115510000D03*
D18*
%TO.P,REF\u002A\u002A,25*%
%TO.N,N/C*%
X119890000Y-112970000D03*
D19*
X120790000Y-112970000D03*
D18*
%TO.P,REF\u002A\u002A,26*%
X119890000Y-110430000D03*
D19*
X120790000Y-110430000D03*
D18*
%TO.P,REF\u002A\u002A,27*%
X119890000Y-107890000D03*
D19*
X120790000Y-107890000D03*
D20*
%TO.P,REF\u002A\u002A,28*%
X119890000Y-105350000D03*
D19*
X120790000Y-105350000D03*
D18*
%TO.P,REF\u002A\u002A,29*%
X119890000Y-102810000D03*
D19*
X120790000Y-102810000D03*
D18*
%TO.P,REF\u002A\u002A,30*%
X119890000Y-100270000D03*
D19*
X120790000Y-100270000D03*
D18*
%TO.P,REF\u002A\u002A,31*%
X119890000Y-97730000D03*
D19*
X120790000Y-97730000D03*
D18*
%TO.P,REF\u002A\u002A,32*%
X119890000Y-95190000D03*
D19*
X120790000Y-95190000D03*
D20*
%TO.P,REF\u002A\u002A,33*%
X119890000Y-92650000D03*
D19*
X120790000Y-92650000D03*
D18*
%TO.P,REF\u002A\u002A,34*%
X119890000Y-90110000D03*
D19*
X120790000Y-90110000D03*
D18*
%TO.P,REF\u002A\u002A,35*%
X119890000Y-87570000D03*
D19*
X120790000Y-87570000D03*
D18*
%TO.P,REF\u002A\u002A,36*%
X119890000Y-85030000D03*
D19*
X120790000Y-85030000D03*
D18*
%TO.P,REF\u002A\u002A,37*%
X119890000Y-82490000D03*
D19*
X120790000Y-82490000D03*
D20*
%TO.P,REF\u002A\u002A,38*%
X119890000Y-79950000D03*
D19*
X120790000Y-79950000D03*
D18*
%TO.P,REF\u002A\u002A,39*%
X119890000Y-77410000D03*
D19*
X120790000Y-77410000D03*
D18*
%TO.P,REF\u002A\u002A,40*%
X119890000Y-74870000D03*
D19*
X120790000Y-74870000D03*
D18*
%TO.P,REF\u002A\u002A,41*%
X108460000Y-122900000D03*
D21*
X108460000Y-123800000D03*
D20*
%TO.P,REF\u002A\u002A,42*%
X111000000Y-122900000D03*
D21*
X111000000Y-123800000D03*
D18*
%TO.P,REF\u002A\u002A,43*%
X113540000Y-122900000D03*
D21*
X113540000Y-123800000D03*
%TD*%
D22*
%TO.P,J1,2,Pin_2*%
%TO.N,GND*%
X146500000Y-93500000D03*
D23*
%TO.P,J1,1,Pin_1*%
%TO.N,VCC*%
X142620000Y-93500000D03*
%TD*%
D14*
%TO.P,R3,1*%
%TO.N,VCC*%
X147285000Y-105000000D03*
D15*
%TO.P,R3,2*%
%TO.N,Net-(Q1-C)*%
X139665000Y-105000000D03*
%TD*%
D24*
%TO.N,Net-(D1-A)*%
X126660000Y-116660000D02*
X120000000Y-116660000D01*
X129000000Y-119000000D02*
X126660000Y-116660000D01*
D25*
%TO.N,VCC*%
X142620000Y-100335000D02*
X147285000Y-105000000D01*
X142620000Y-93500000D02*
X142620000Y-100335000D01*
%TO.N,GND*%
X151000000Y-108000000D02*
X151000000Y-98000000D01*
X151000000Y-98000000D02*
X146500000Y-93500000D01*
X148000000Y-111000000D02*
X151000000Y-108000000D01*
X146500000Y-111000000D02*
X148000000Y-111000000D01*
X142000000Y-115500000D02*
X146500000Y-111000000D01*
X142000000Y-117715000D02*
X142000000Y-115500000D01*
X147285000Y-123000000D02*
X142000000Y-117715000D01*
%TO.N,Net-(D1-K)*%
X135665000Y-119000000D02*
X139665000Y-123000000D01*
X131540000Y-119000000D02*
X135665000Y-119000000D01*
%TO.N,Net-(Q1-C)*%
X138665000Y-104000000D02*
X139665000Y-105000000D01*
X133000000Y-104000000D02*
X138665000Y-104000000D01*
%TO.N,Net-(Q1-B)*%
X137500000Y-115500000D02*
X140000000Y-115500000D01*
X130460000Y-108460000D02*
X137500000Y-115500000D01*
X130460000Y-104000000D02*
X130460000Y-108460000D01*
D24*
X131730000Y-96555000D02*
X131730000Y-105270000D01*
X135285000Y-93000000D02*
X131730000Y-96555000D01*
D25*
%TO.N,Net-(U1-GPIO22)*%
X127665000Y-100000000D02*
X127665000Y-93000000D01*
X124855000Y-102810000D02*
X127665000Y-100000000D01*
X119890000Y-102810000D02*
X124855000Y-102810000D01*
D26*
X124855000Y-102810000D02*
X126604340Y-101060660D01*
%TO.N,Net-(D1-A)*%
X119890000Y-115510000D02*
X122430000Y-115510000D01*
%TD*%
M02*
