%TF.GenerationSoftware,KiCad,Pcbnew,8.0.1*%
%TF.CreationDate,2024-03-28T11:23:41-03:00*%
%TF.ProjectId,agora vai,61676f72-6120-4766-9169-2e6b69636164,rev?*%
%TF.SameCoordinates,Original*%
%TF.FileFunction,Soldermask,Bot*%
%TF.FilePolarity,Negative*%
%FSLAX46Y46*%
G04 Gerber Fmt 4.6, Leading zero omitted, Abs format (unit mm)*
G04 Created by KiCad (PCBNEW 8.0.1) date 2024-03-28 11:23:41*
%MOMM*%
%LPD*%
G01*
G04 APERTURE LIST*
G04 Aperture macros list*
%AMRoundRect*
0 Rectangle with rounded corners*
0 $1 Rounding radius*
0 $2 $3 $4 $5 $6 $7 $8 $9 X,Y pos of 4 corners*
0 Add a 4 corners polygon primitive as box body*
4,1,4,$2,$3,$4,$5,$6,$7,$8,$9,$2,$3,0*
0 Add four circle primitives for the rounded corners*
1,1,$1+$1,$2,$3*
1,1,$1+$1,$4,$5*
1,1,$1+$1,$6,$7*
1,1,$1+$1,$8,$9*
0 Add four rect primitives between the rounded corners*
20,1,$1+$1,$2,$3,$4,$5,0*
20,1,$1+$1,$4,$5,$6,$7,0*
20,1,$1+$1,$6,$7,$8,$9,0*
20,1,$1+$1,$8,$9,$2,$3,0*%
G04 Aperture macros list end*
%ADD10R,1.800000X1.800000*%
%ADD11C,1.800000*%
%ADD12O,1.600000X1.200000*%
%ADD13O,1.200000X1.200000*%
%ADD14C,2.400000*%
%ADD15O,2.400000X2.400000*%
%ADD16O,1.200000X1.750000*%
%ADD17RoundRect,0.250000X0.350000X0.625000X-0.350000X0.625000X-0.350000X-0.625000X0.350000X-0.625000X0*%
%ADD18O,1.800000X1.800000*%
%ADD19O,1.500000X1.500000*%
%ADD20O,1.700000X1.700000*%
%ADD21R,1.700000X1.700000*%
%ADD22C,3.000000*%
%ADD23R,3.000000X3.000000*%
G04 APERTURE END LIST*
D10*
%TO.C,D1*%
X131540000Y-119000000D03*
D11*
X129000000Y-119000000D03*
%TD*%
D12*
%TO.C,Q1*%
X130460000Y-104000000D03*
D13*
X131730000Y-105270000D03*
X133000000Y-104000000D03*
%TD*%
D14*
%TO.C,R1*%
X135285000Y-93000000D03*
D15*
X127665000Y-93000000D03*
%TD*%
D14*
%TO.C,R2*%
X147285000Y-123000000D03*
D15*
X139665000Y-123000000D03*
%TD*%
D16*
%TO.C,J2*%
X140000000Y-115500000D03*
D17*
X142000000Y-115500000D03*
%TD*%
D18*
%TO.C,REF\u002A\u002A*%
X108275000Y-75000000D03*
D19*
X108575000Y-78030000D03*
X113425000Y-78030000D03*
D18*
X113725000Y-75000000D03*
D20*
X102110000Y-74870000D03*
X102110000Y-77410000D03*
D21*
X102110000Y-79950000D03*
D20*
X102110000Y-82490000D03*
X102110000Y-85030000D03*
X102110000Y-87570000D03*
X102110000Y-90110000D03*
D21*
X102110000Y-92650000D03*
D20*
X102110000Y-95190000D03*
X102110000Y-97730000D03*
X102110000Y-100270000D03*
X102110000Y-102810000D03*
D21*
X102110000Y-105350000D03*
D20*
X102110000Y-107890000D03*
X102110000Y-110430000D03*
X102110000Y-112970000D03*
X102110000Y-115510000D03*
D21*
X102110000Y-118050000D03*
D20*
X102110000Y-120590000D03*
X102110000Y-123130000D03*
X119890000Y-123130000D03*
X119890000Y-120590000D03*
D21*
X119890000Y-118050000D03*
D20*
X119890000Y-115510000D03*
X119890000Y-112970000D03*
X119890000Y-110430000D03*
X119890000Y-107890000D03*
D21*
X119890000Y-105350000D03*
D20*
X119890000Y-102810000D03*
X119890000Y-100270000D03*
X119890000Y-97730000D03*
X119890000Y-95190000D03*
D21*
X119890000Y-92650000D03*
D20*
X119890000Y-90110000D03*
X119890000Y-87570000D03*
X119890000Y-85030000D03*
X119890000Y-82490000D03*
D21*
X119890000Y-79950000D03*
D20*
X119890000Y-77410000D03*
X119890000Y-74870000D03*
X108460000Y-122900000D03*
D21*
X111000000Y-122900000D03*
D20*
X113540000Y-122900000D03*
%TD*%
D22*
%TO.C,J1*%
X146500000Y-93500000D03*
D23*
X142620000Y-93500000D03*
%TD*%
D14*
%TO.C,R3*%
X147285000Y-105000000D03*
D15*
X139665000Y-105000000D03*
%TD*%
M02*
